{
	"asset":{
		"generator":"Khronos glTF Blender I/O v3.6.27",
		"version":"2.0"
	},
	"scene":0,
	"scenes":[
		{
			"name":"Scene",
			"nodes":[
				1
			]
		}
	],
	"nodes":[
		{
			"mesh":0,
			"name":"Soccerball__0",
			"scale":[
				0.6457258462905884,
				0.6457258462905884,
				0.6457258462905884
			]
		},
		{
			"children":[
				0
			],
			"name":"football"
		}
	],
	"materials":[
		{
			"doubleSided":true,
			"name":"Scene_-_Root",
			"normalTexture":{
				"index":0
			},
			"occlusionTexture":{
				"index":1
			},
			"pbrMetallicRoughness":{
				"baseColorFactor":[
					0.6000000238418579,
					0.6000000238418579,
					0.6000000238418579,
					1
				],
				"baseColorTexture":{
					"index":2
				},
				"metallicRoughnessTexture":{
					"index":1
				},
				"roughnessFactor":0.25
			}
		}
	],
	"meshes":[
		{
			"name":"Soccerball__0",
			"primitives":[
				{
					"attributes":{
						"POSITION":0,
						"NORMAL":1,
						"TEXCOORD_0":2
					},
					"indices":3,
					"material":0
				}
			]
		}
	],
	"textures":[
		{
			"sampler":0,
			"source":0
		},
		{
			"sampler":0,
			"source":1
		},
		{
			"sampler":0,
			"source":2
		}
	],
	"images":[
		{
			"mimeType":"image/png",
			"name":"Image_2",
			"uri":"textures/Image_2.png"
		},
		{
			"mimeType":"image/png",
			"name":"Image_1",
			"uri":"textures/Image_1.png"
		},
		{
			"mimeType":"image/png",
			"name":"Image_0",
			"uri":"textures/Image_0.png"
		}
	],
	"accessors":[
		{
			"bufferView":0,
			"componentType":5126,
			"count":1112,
			"max":[
				0.4499731659889221,
				0.44997867941856384,
				0.44997864961624146
			],
			"min":[
				-0.4499731659889221,
				-0.44997867941856384,
				-0.44997864961624146
			],
			"type":"VEC3"
		},
		{
			"bufferView":1,
			"componentType":5126,
			"count":1112,
			"type":"VEC3"
		},
		{
			"bufferView":2,
			"componentType":5126,
			"count":1112,
			"type":"VEC2"
		},
		{
			"bufferView":3,
			"componentType":5123,
			"count":4320,
			"type":"SCALAR"
		}
	],
	"bufferViews":[
		{
			"buffer":0,
			"byteLength":13344,
			"byteOffset":0,
			"target":34962
		},
		{
			"buffer":0,
			"byteLength":13344,
			"byteOffset":13344,
			"target":34962
		},
		{
			"buffer":0,
			"byteLength":8896,
			"byteOffset":26688,
			"target":34962
		},
		{
			"buffer":0,
			"byteLength":8640,
			"byteOffset":35584,
			"target":34963
		}
	],
	"samplers":[
		{
			"magFilter":9729,
			"minFilter":9987
		}
	],
	"buffers":[
		{
			"byteLength":44224,
			"uri":"model.bin"
		}
	]
}
