{
	"asset":{
		"generator":"Khronos glTF Blender I/O v3.6.27",
		"version":"2.0"
	},
	"scene":0,
	"scenes":[
		{
			"name":"Scene",
			"nodes":[
				0,
				1
			]
		}
	],
	"nodes":[
		{
			"mesh":0,
			"name":"ex-voto-block",
			"scale":[
				0.018867099657654762,
				0.1892918199300766,
				0.4017355442047119
			],
			"translation":[
				0,
				1.2070015668869019,
				0
			]
		},
		{
			"mesh":1,
			"name":"ex-voto-message",
			"rotation":[
				0,
				0,
				-0.7071068286895752,
				0.7071068286895752
			],
			"scale":[
				0.16098491847515106,
				0.389967679977417,
				0.3578296899795532
			],
			"translation":[
				0.019159892573952675,
				1.2079734802246094,
				0
			]
		}
	],
	"materials":[
		{
			"doubleSided":true,
			"name":"marble",
			"pbrMetallicRoughness":{
				"baseColorTexture":{
					"index":0
				}
			}
		}
	],
	"meshes":[
		{
			"name":"Cube",
			"primitives":[
				{
					"attributes":{
						"POSITION":0,
						"NORMAL":1,
						"TEXCOORD_0":2
					},
					"indices":3,
					"material":0
				}
			]
		},
		{
			"name":"Plane",
			"primitives":[
				{
					"attributes":{
						"POSITION":4,
						"NORMAL":5,
						"TEXCOORD_0":6
					},
					"indices":7
				}
			]
		}
	],
	"textures":[
		{
			"sampler":0,
			"source":0
		}
	],
	"images":[
		{
			"mimeType":"image/png",
			"name":"greymarble_10_basecolor-1K",
			"uri":"textures/greymarble_10_basecolor-1K.png"
		}
	],
	"accessors":[
		{
			"bufferView":0,
			"componentType":5126,
			"count":384,
			"max":[
				1,
				1,
				1
			],
			"min":[
				-1,
				-1,
				-1
			],
			"type":"VEC3"
		},
		{
			"bufferView":1,
			"componentType":5126,
			"count":384,
			"type":"VEC3"
		},
		{
			"bufferView":2,
			"componentType":5126,
			"count":384,
			"type":"VEC2"
		},
		{
			"bufferView":3,
			"componentType":5123,
			"count":564,
			"type":"SCALAR"
		},
		{
			"bufferView":4,
			"componentType":5126,
			"count":4,
			"max":[
				1,
				0,
				1
			],
			"min":[
				-1,
				0,
				-1
			],
			"type":"VEC3"
		},
		{
			"bufferView":5,
			"componentType":5126,
			"count":4,
			"type":"VEC3"
		},
		{
			"bufferView":6,
			"componentType":5126,
			"count":4,
			"type":"VEC2"
		},
		{
			"bufferView":7,
			"componentType":5123,
			"count":6,
			"type":"SCALAR"
		}
	],
	"bufferViews":[
		{
			"buffer":0,
			"byteLength":4608,
			"byteOffset":0,
			"target":34962
		},
		{
			"buffer":0,
			"byteLength":4608,
			"byteOffset":4608,
			"target":34962
		},
		{
			"buffer":0,
			"byteLength":3072,
			"byteOffset":9216,
			"target":34962
		},
		{
			"buffer":0,
			"byteLength":1128,
			"byteOffset":12288,
			"target":34963
		},
		{
			"buffer":0,
			"byteLength":48,
			"byteOffset":13416,
			"target":34962
		},
		{
			"buffer":0,
			"byteLength":48,
			"byteOffset":13464,
			"target":34962
		},
		{
			"buffer":0,
			"byteLength":32,
			"byteOffset":13512,
			"target":34962
		},
		{
			"buffer":0,
			"byteLength":12,
			"byteOffset":13544,
			"target":34963
		}
	],
	"samplers":[
		{
			"magFilter":9729,
			"minFilter":9987
		}
	],
	"buffers":[
		{
			"byteLength":13556,
			"uri":"model.bin"
		}
	]
}
