{
	"asset":{
		"generator":"Khronos glTF Blender I/O v3.6.27",
		"version":"2.0"
	},
	"scene":0,
	"scenes":[
		{
			"name":"Scene",
			"nodes":[
				3,
				18,
				24,
				25,
				26,
				27,
				28,
				29
			]
		}
	],
	"nodes":[
		{
			"name":"Plane",
			"rotation":[
				-0.4999999403953552,
				0.49999991059303284,
				-0.5000000596046448,
				0.5000000596046448
			]
		},
		{
			"children":[
				0
			],
			"name":"RootNode"
		},
		{
			"children":[
				1
			],
			"name":"550e7c056d3948b3a45e8d1a3d6c5a9e.fbx",
			"rotation":[
				0.7071068286895752,
				0,
				0,
				0.7071067094802856
			],
			"scale":[
				0.5300743579864502,
				0.5300744771957397,
				0.530074417591095
			],
			"translation":[
				0.21943503618240356,
				-0.691152036190033,
				0
			]
		},
		{
			"children":[
				2
			],
			"name":"Sketchfab_model",
			"rotation":[
				-0.599131166934967,
				0.3755555748939514,
				0.3755555748939514,
				0.5991310477256775
			],
			"translation":[
				-1.0366361141204834,
				0,
				0.087522491812706
			]
		},
		{
			"mesh":0,
			"name":"pCube1_lambert1_0"
		},
		{
			"children":[
				4
			],
			"name":"pCube1"
		},
		{
			"mesh":1,
			"name":"pCube2_lambert1_0"
		},
		{
			"children":[
				6
			],
			"name":"pCube2"
		},
		{
			"mesh":2,
			"name":"pCube3_lambert1_0"
		},
		{
			"children":[
				8
			],
			"name":"pCube3"
		},
		{
			"mesh":3,
			"name":"pCube4_lambert1_0"
		},
		{
			"children":[
				10
			],
			"name":"pCube4"
		},
		{
			"mesh":4,
			"name":"pCylinder1_lambert1_0"
		},
		{
			"children":[
				12
			],
			"name":"pCylinder1"
		},
		{
			"mesh":5,
			"name":"pCylinder2_lambert1_0"
		},
		{
			"children":[
				14
			],
			"name":"pCylinder2"
		},
		{
			"children":[
				5,
				7,
				9,
				11,
				13,
				15
			],
			"name":"RootNode.001"
		},
		{
			"children":[
				16
			],
			"name":"67636e468e9b43c88773fec79e5b85e3.fbx",
			"rotation":[
				0.70710688829422,
				0,
				0,
				0.7071067094802856
			],
			"scale":[
				0.040365301072597504,
				0.040365301072597504,
				0.040365301072597504
			],
			"translation":[
				0.2038378119468689,
				-0.6911519765853882,
				0
			]
		},
		{
			"children":[
				17
			],
			"name":"Sketchfab_model.001",
			"rotation":[
				-0.599131166934967,
				0.3755555748939514,
				0.3755555748939514,
				0.5991310477256775
			],
			"translation":[
				-1.0366361141204834,
				0,
				0.087522491812706
			]
		},
		{
			"mesh":6,
			"name":"traffic cone_Material.001_0"
		},
		{
			"mesh":7,
			"name":"traffic cone_Material_0"
		},
		{
			"children":[
				19,
				20
			],
			"name":"traffic cone",
			"rotation":[
				-0.70710688829422,
				0,
				0,
				0.7071066498756409
			],
			"scale":[
				100.00000762939453,
				100,
				68.42314147949219
			],
			"translation":[
				-3.0517578125e-05,
				0,
				0
			]
		},
		{
			"children":[
				21
			],
			"name":"RootNode.002",
			"translation":[
				-3.0517578125e-05,
				0,
				0
			]
		},
		{
			"children":[
				22
			],
			"name":"14413415cc0a49f099f5912c5ab529d8.fbx",
			"rotation":[
				0.70710688829422,
				0,
				0,
				0.7071066498756409
			],
			"scale":[
				0.009999998845160007,
				0.009999999776482582,
				0.009999999776482582
			]
		},
		{
			"children":[
				23
			],
			"name":"Sketchfab_model.002",
			"rotation":[
				-0.70710688829422,
				0,
				0,
				0.7071066498756409
			],
			"scale":[
				0.0807436853647232,
				0.0807437002658844,
				0.1009296327829361
			],
			"translation":[
				-0.31123632192611694,
				0,
				-0.22496242821216583
			]
		},
		{
			"mesh":8,
			"name":"ex-voto-block",
			"scale":[
				0.014331044629216194,
				0.14378201961517334,
				0.30514973402023315
			],
			"translation":[
				-0.856723964214325,
				1.2071183919906616,
				0
			]
		},
		{
			"mesh":9,
			"name":"ex-voto-message",
			"rotation":[
				0,
				0,
				-0.7071068286895752,
				0.7071068286895752
			],
			"scale":[
				0.12228070944547653,
				0.2962111234664917,
				0.27179980278015137
			],
			"translation":[
				-0.8421705365180969,
				1.2078566551208496,
				0
			]
		},
		{
			"mesh":10,
			"name":"base",
			"scale":[
				0.2352624088525772,
				0.07097107172012329,
				0.2352624088525772
			],
			"translation":[
				-0.6483906507492065,
				0.06023453548550606,
				0
			]
		},
		{
			"mesh":11,
			"name":"house",
			"scale":[
				0.1743798851966858,
				0.0982770323753357,
				0.12254643440246582
			],
			"translation":[
				-0.6522173881530762,
				0.1293993890285492,
				0
			]
		},
		{
			"mesh":12,
			"name":"pole",
			"rotation":[
				0,
				1,
				0,
				0
			],
			"scale":[
				-0.028711676597595215,
				-0.8297271132469177,
				-0.028711676597595215
			],
			"translation":[
				-0.8934732675552368,
				0.7941685914993286,
				0
			]
		}
	],
	"materials":[
		{
			"doubleSided":true,
			"emissiveFactor":[
				1,
				1,
				1
			],
			"emissiveTexture":{
				"index":0
			},
			"name":"lambert1",
			"occlusionTexture":{
				"index":1
			},
			"pbrMetallicRoughness":{
				"baseColorTexture":{
					"index":2
				},
				"metallicFactor":0,
				"metallicRoughnessTexture":{
					"index":1
				},
				"roughnessFactor":0.6000000238418579
			}
		},
		{
			"doubleSided":true,
			"name":"Material.001",
			"pbrMetallicRoughness":{
				"baseColorTexture":{
					"index":3
				},
				"metallicFactor":0,
				"roughnessFactor":0.8211145401000977
			}
		},
		{
			"doubleSided":true,
			"name":"Material.003",
			"pbrMetallicRoughness":{
				"baseColorTexture":{
					"index":4
				},
				"metallicFactor":0,
				"roughnessFactor":0.9379905462265015
			}
		},
		{
			"doubleSided":true,
			"emissiveFactor":[
				0.10000002384185791,
				0.10000002384185791,
				0.10000002384185791
			],
			"name":"marble",
			"pbrMetallicRoughness":{
				"baseColorTexture":{
					"index":5
				}
			}
		},
		{
			"doubleSided":true,
			"name":"metal",
			"pbrMetallicRoughness":{
				"baseColorFactor":[
					0.800000011920929,
					0.800000011920929,
					0.800000011920929,
					1
				],
				"metallicFactor":0.6850389242172241,
				"roughnessFactor":0.051181092858314514
			}
		},
		{
			"doubleSided":true,
			"name":"Material",
			"pbrMetallicRoughness":{
				"baseColorFactor":[
					0.0946258008480072,
					0.009759929962456226,
					0.007318182848393917,
					1
				],
				"metallicFactor":0,
				"roughnessFactor":0.5
			}
		}
	],
	"meshes":[
		{
			"name":"pCube1_lambert1_0",
			"primitives":[
				{
					"attributes":{
						"POSITION":0,
						"NORMAL":1,
						"TEXCOORD_0":2
					},
					"indices":3,
					"material":0
				}
			]
		},
		{
			"name":"pCube2_lambert1_0",
			"primitives":[
				{
					"attributes":{
						"POSITION":4,
						"NORMAL":5,
						"TEXCOORD_0":6
					},
					"indices":7,
					"material":0
				}
			]
		},
		{
			"name":"pCube3_lambert1_0",
			"primitives":[
				{
					"attributes":{
						"POSITION":8,
						"NORMAL":9,
						"TEXCOORD_0":10
					},
					"indices":11,
					"material":0
				}
			]
		},
		{
			"name":"pCube4_lambert1_0",
			"primitives":[
				{
					"attributes":{
						"POSITION":12,
						"NORMAL":13,
						"TEXCOORD_0":14
					},
					"indices":11,
					"material":0
				}
			]
		},
		{
			"name":"pCylinder1_lambert1_0",
			"primitives":[
				{
					"attributes":{
						"POSITION":15,
						"NORMAL":16,
						"TEXCOORD_0":17
					},
					"indices":18,
					"material":0
				}
			]
		},
		{
			"name":"pCylinder2_lambert1_0",
			"primitives":[
				{
					"attributes":{
						"POSITION":19,
						"NORMAL":20,
						"TEXCOORD_0":21
					},
					"indices":22,
					"material":0
				}
			]
		},
		{
			"name":"traffic cone_Material.001_0",
			"primitives":[
				{
					"attributes":{
						"POSITION":23,
						"NORMAL":24,
						"TEXCOORD_0":25,
						"TEXCOORD_1":26
					},
					"indices":27,
					"material":1
				}
			]
		},
		{
			"name":"traffic cone_Material_0",
			"primitives":[
				{
					"attributes":{
						"POSITION":28,
						"NORMAL":29,
						"TEXCOORD_0":30,
						"TEXCOORD_1":31
					},
					"indices":32,
					"material":2
				}
			]
		},
		{
			"name":"Cube",
			"primitives":[
				{
					"attributes":{
						"POSITION":33,
						"NORMAL":34,
						"TEXCOORD_0":35
					},
					"indices":36,
					"material":3
				}
			]
		},
		{
			"name":"Plane",
			"primitives":[
				{
					"attributes":{
						"POSITION":37,
						"NORMAL":38,
						"TEXCOORD_0":39
					},
					"indices":40
				}
			]
		},
		{
			"name":"Cube.001",
			"primitives":[
				{
					"attributes":{
						"POSITION":41,
						"NORMAL":42,
						"TEXCOORD_0":43
					},
					"indices":44,
					"material":4
				}
			]
		},
		{
			"name":"Plane.001",
			"primitives":[
				{
					"attributes":{
						"POSITION":45,
						"NORMAL":46,
						"TEXCOORD_0":47
					},
					"indices":48,
					"material":4
				}
			]
		},
		{
			"name":"Cube.002",
			"primitives":[
				{
					"attributes":{
						"POSITION":49,
						"NORMAL":50,
						"TEXCOORD_0":51
					},
					"indices":44,
					"material":5
				}
			]
		}
	],
	"textures":[
		{
			"sampler":0,
			"source":0
		},
		{
			"sampler":0,
			"source":1
		},
		{
			"sampler":0,
			"source":2
		},
		{
			"sampler":0,
			"source":3
		},
		{
			"sampler":0,
			"source":4
		},
		{
			"sampler":0,
			"source":5
		}
	],
	"images":[
		{
			"mimeType":"image/png",
			"name":"Image_2",
			"uri":"textures/Image_2.png"
		},
		{
			"mimeType":"image/png",
			"name":"Image_1",
			"uri":"textures/Image_1.png"
		},
		{
			"mimeType":"image/png",
			"name":"Image_0",
			"uri":"textures/Image_0.png"
		},
		{
			"mimeType":"image/png",
			"name":"Image_0",
			"uri":"textures/Image_0-1.png"
		},
		{
			"mimeType":"image/png",
			"name":"Image_1",
			"uri":"textures/Image_1-1.png"
		},
		{
			"mimeType":"image/png",
			"name":"greymarble_10_basecolor-1K",
			"uri":"textures/greymarble_10_basecolor-1K.png"
		}
	],
	"accessors":[
		{
			"bufferView":0,
			"componentType":5126,
			"count":39,
			"max":[
				0.15228408575057983,
				3.1282572746276855,
				0.13618311285972595
			],
			"min":[
				-0.16657555103302002,
				1.996858835220337,
				-0.1382594108581543
			],
			"type":"VEC3"
		},
		{
			"bufferView":1,
			"componentType":5126,
			"count":39,
			"type":"VEC3"
		},
		{
			"bufferView":2,
			"componentType":5126,
			"count":39,
			"type":"VEC2"
		},
		{
			"bufferView":3,
			"componentType":5123,
			"count":144,
			"type":"SCALAR"
		},
		{
			"bufferView":4,
			"componentType":5126,
			"count":39,
			"max":[
				-0.9750823974609375,
				2.58774471282959,
				1.7455143928527832
			],
			"min":[
				-1.2910348176956177,
				1.466662049293518,
				1.4735742807388306
			],
			"type":"VEC3"
		},
		{
			"bufferView":5,
			"componentType":5126,
			"count":39,
			"type":"VEC3"
		},
		{
			"bufferView":6,
			"componentType":5126,
			"count":39,
			"type":"VEC2"
		},
		{
			"bufferView":7,
			"componentType":5123,
			"count":144,
			"type":"SCALAR"
		},
		{
			"bufferView":8,
			"componentType":5126,
			"count":16,
			"max":[
				0.01977485418319702,
				2.189965009689331,
				0.01977485418319702
			],
			"min":[
				-0.01977485418319702,
				1.881239414215088,
				-0.01977485418319702
			],
			"type":"VEC3"
		},
		{
			"bufferView":9,
			"componentType":5126,
			"count":16,
			"type":"VEC3"
		},
		{
			"bufferView":10,
			"componentType":5126,
			"count":16,
			"type":"VEC2"
		},
		{
			"bufferView":11,
			"componentType":5123,
			"count":24,
			"type":"SCALAR"
		},
		{
			"bufferView":12,
			"componentType":5126,
			"count":16,
			"max":[
				-1.0933737754821777,
				1.7020459175109863,
				1.643675446510315
			],
			"min":[
				-1.1329236030578613,
				1.3933205604553223,
				1.604125738143921
			],
			"type":"VEC3"
		},
		{
			"bufferView":13,
			"componentType":5126,
			"count":16,
			"type":"VEC3"
		},
		{
			"bufferView":14,
			"componentType":5126,
			"count":16,
			"type":"VEC2"
		},
		{
			"bufferView":15,
			"componentType":5126,
			"count":76,
			"max":[
				1,
				2,
				1
			],
			"min":[
				-1.2197763919830322,
				0,
				-1
			],
			"type":"VEC3"
		},
		{
			"bufferView":16,
			"componentType":5126,
			"count":76,
			"type":"VEC3"
		},
		{
			"bufferView":17,
			"componentType":5126,
			"count":76,
			"type":"VEC2"
		},
		{
			"bufferView":18,
			"componentType":5123,
			"count":288,
			"type":"SCALAR"
		},
		{
			"bufferView":19,
			"componentType":5126,
			"count":64,
			"max":[
				-0.39153093099594116,
				1.4549211263656616,
				2.3319242000579834
			],
			"min":[
				-1.8604252338409424,
				0,
				0.8630298972129822
			],
			"type":"VEC3"
		},
		{
			"bufferView":20,
			"componentType":5126,
			"count":64,
			"type":"VEC3"
		},
		{
			"bufferView":21,
			"componentType":5126,
			"count":64,
			"type":"VEC2"
		},
		{
			"bufferView":22,
			"componentType":5123,
			"count":216,
			"type":"SCALAR"
		},
		{
			"bufferView":23,
			"componentType":5126,
			"count":144,
			"max":[
				0.6457628011703491,
				0.6457628011703491,
				2.69480562210083
			],
			"min":[
				-0.6457628011703491,
				-0.6457628011703491,
				0.7332008481025696
			],
			"type":"VEC3"
		},
		{
			"bufferView":24,
			"componentType":5126,
			"count":144,
			"type":"VEC3"
		},
		{
			"bufferView":25,
			"componentType":5126,
			"count":144,
			"type":"VEC2"
		},
		{
			"bufferView":26,
			"componentType":5126,
			"count":144,
			"type":"VEC2"
		},
		{
			"bufferView":27,
			"componentType":5123,
			"count":384,
			"type":"SCALAR"
		},
		{
			"bufferView":28,
			"componentType":5126,
			"count":492,
			"max":[
				1,
				1,
				3.346919298171997
			],
			"min":[
				-1,
				-1,
				-0.08635032176971436
			],
			"type":"VEC3"
		},
		{
			"bufferView":29,
			"componentType":5126,
			"count":492,
			"type":"VEC3"
		},
		{
			"bufferView":30,
			"componentType":5126,
			"count":492,
			"type":"VEC2"
		},
		{
			"bufferView":31,
			"componentType":5126,
			"count":492,
			"type":"VEC2"
		},
		{
			"bufferView":32,
			"componentType":5123,
			"count":1362,
			"type":"SCALAR"
		},
		{
			"bufferView":33,
			"componentType":5126,
			"count":384,
			"max":[
				1,
				1,
				1
			],
			"min":[
				-1,
				-1,
				-1
			],
			"type":"VEC3"
		},
		{
			"bufferView":34,
			"componentType":5126,
			"count":384,
			"type":"VEC3"
		},
		{
			"bufferView":35,
			"componentType":5126,
			"count":384,
			"type":"VEC2"
		},
		{
			"bufferView":36,
			"componentType":5123,
			"count":564,
			"type":"SCALAR"
		},
		{
			"bufferView":37,
			"componentType":5126,
			"count":4,
			"max":[
				1,
				0,
				1
			],
			"min":[
				-1,
				0,
				-1
			],
			"type":"VEC3"
		},
		{
			"bufferView":38,
			"componentType":5126,
			"count":4,
			"type":"VEC3"
		},
		{
			"bufferView":39,
			"componentType":5126,
			"count":4,
			"type":"VEC2"
		},
		{
			"bufferView":40,
			"componentType":5123,
			"count":6,
			"type":"SCALAR"
		},
		{
			"bufferView":41,
			"componentType":5126,
			"count":24,
			"max":[
				1,
				1,
				1
			],
			"min":[
				-1,
				-1,
				-1
			],
			"type":"VEC3"
		},
		{
			"bufferView":42,
			"componentType":5126,
			"count":24,
			"type":"VEC3"
		},
		{
			"bufferView":43,
			"componentType":5126,
			"count":24,
			"type":"VEC2"
		},
		{
			"bufferView":44,
			"componentType":5123,
			"count":36,
			"type":"SCALAR"
		},
		{
			"bufferView":45,
			"componentType":5126,
			"count":176,
			"max":[
				1.0000001192092896,
				5.336483478546143,
				0.9742740392684937
			],
			"min":[
				-1,
				0,
				-1.053175926208496
			],
			"type":"VEC3"
		},
		{
			"bufferView":46,
			"componentType":5126,
			"count":176,
			"type":"VEC3"
		},
		{
			"bufferView":47,
			"componentType":5126,
			"count":176,
			"type":"VEC2"
		},
		{
			"bufferView":48,
			"componentType":5123,
			"count":378,
			"type":"SCALAR"
		},
		{
			"bufferView":49,
			"componentType":5126,
			"count":24,
			"max":[
				1,
				1,
				1
			],
			"min":[
				-1,
				-1,
				-1
			],
			"type":"VEC3"
		},
		{
			"bufferView":50,
			"componentType":5126,
			"count":24,
			"type":"VEC3"
		},
		{
			"bufferView":51,
			"componentType":5126,
			"count":24,
			"type":"VEC2"
		}
	],
	"bufferViews":[
		{
			"buffer":0,
			"byteLength":468,
			"byteOffset":0,
			"target":34962
		},
		{
			"buffer":0,
			"byteLength":468,
			"byteOffset":468,
			"target":34962
		},
		{
			"buffer":0,
			"byteLength":312,
			"byteOffset":936,
			"target":34962
		},
		{
			"buffer":0,
			"byteLength":288,
			"byteOffset":1248,
			"target":34963
		},
		{
			"buffer":0,
			"byteLength":468,
			"byteOffset":1536,
			"target":34962
		},
		{
			"buffer":0,
			"byteLength":468,
			"byteOffset":2004,
			"target":34962
		},
		{
			"buffer":0,
			"byteLength":312,
			"byteOffset":2472,
			"target":34962
		},
		{
			"buffer":0,
			"byteLength":288,
			"byteOffset":2784,
			"target":34963
		},
		{
			"buffer":0,
			"byteLength":192,
			"byteOffset":3072,
			"target":34962
		},
		{
			"buffer":0,
			"byteLength":192,
			"byteOffset":3264,
			"target":34962
		},
		{
			"buffer":0,
			"byteLength":128,
			"byteOffset":3456,
			"target":34962
		},
		{
			"buffer":0,
			"byteLength":48,
			"byteOffset":3584,
			"target":34963
		},
		{
			"buffer":0,
			"byteLength":192,
			"byteOffset":3632,
			"target":34962
		},
		{
			"buffer":0,
			"byteLength":192,
			"byteOffset":3824,
			"target":34962
		},
		{
			"buffer":0,
			"byteLength":128,
			"byteOffset":4016,
			"target":34962
		},
		{
			"buffer":0,
			"byteLength":912,
			"byteOffset":4144,
			"target":34962
		},
		{
			"buffer":0,
			"byteLength":912,
			"byteOffset":5056,
			"target":34962
		},
		{
			"buffer":0,
			"byteLength":608,
			"byteOffset":5968,
			"target":34962
		},
		{
			"buffer":0,
			"byteLength":576,
			"byteOffset":6576,
			"target":34963
		},
		{
			"buffer":0,
			"byteLength":768,
			"byteOffset":7152,
			"target":34962
		},
		{
			"buffer":0,
			"byteLength":768,
			"byteOffset":7920,
			"target":34962
		},
		{
			"buffer":0,
			"byteLength":512,
			"byteOffset":8688,
			"target":34962
		},
		{
			"buffer":0,
			"byteLength":432,
			"byteOffset":9200,
			"target":34963
		},
		{
			"buffer":0,
			"byteLength":1728,
			"byteOffset":9632,
			"target":34962
		},
		{
			"buffer":0,
			"byteLength":1728,
			"byteOffset":11360,
			"target":34962
		},
		{
			"buffer":0,
			"byteLength":1152,
			"byteOffset":13088,
			"target":34962
		},
		{
			"buffer":0,
			"byteLength":1152,
			"byteOffset":14240,
			"target":34962
		},
		{
			"buffer":0,
			"byteLength":768,
			"byteOffset":15392,
			"target":34963
		},
		{
			"buffer":0,
			"byteLength":5904,
			"byteOffset":16160,
			"target":34962
		},
		{
			"buffer":0,
			"byteLength":5904,
			"byteOffset":22064,
			"target":34962
		},
		{
			"buffer":0,
			"byteLength":3936,
			"byteOffset":27968,
			"target":34962
		},
		{
			"buffer":0,
			"byteLength":3936,
			"byteOffset":31904,
			"target":34962
		},
		{
			"buffer":0,
			"byteLength":2724,
			"byteOffset":35840,
			"target":34963
		},
		{
			"buffer":0,
			"byteLength":4608,
			"byteOffset":38564,
			"target":34962
		},
		{
			"buffer":0,
			"byteLength":4608,
			"byteOffset":43172,
			"target":34962
		},
		{
			"buffer":0,
			"byteLength":3072,
			"byteOffset":47780,
			"target":34962
		},
		{
			"buffer":0,
			"byteLength":1128,
			"byteOffset":50852,
			"target":34963
		},
		{
			"buffer":0,
			"byteLength":48,
			"byteOffset":51980,
			"target":34962
		},
		{
			"buffer":0,
			"byteLength":48,
			"byteOffset":52028,
			"target":34962
		},
		{
			"buffer":0,
			"byteLength":32,
			"byteOffset":52076,
			"target":34962
		},
		{
			"buffer":0,
			"byteLength":12,
			"byteOffset":52108,
			"target":34963
		},
		{
			"buffer":0,
			"byteLength":288,
			"byteOffset":52120,
			"target":34962
		},
		{
			"buffer":0,
			"byteLength":288,
			"byteOffset":52408,
			"target":34962
		},
		{
			"buffer":0,
			"byteLength":192,
			"byteOffset":52696,
			"target":34962
		},
		{
			"buffer":0,
			"byteLength":72,
			"byteOffset":52888,
			"target":34963
		},
		{
			"buffer":0,
			"byteLength":2112,
			"byteOffset":52960,
			"target":34962
		},
		{
			"buffer":0,
			"byteLength":2112,
			"byteOffset":55072,
			"target":34962
		},
		{
			"buffer":0,
			"byteLength":1408,
			"byteOffset":57184,
			"target":34962
		},
		{
			"buffer":0,
			"byteLength":756,
			"byteOffset":58592,
			"target":34963
		},
		{
			"buffer":0,
			"byteLength":288,
			"byteOffset":59348,
			"target":34962
		},
		{
			"buffer":0,
			"byteLength":288,
			"byteOffset":59636,
			"target":34962
		},
		{
			"buffer":0,
			"byteLength":192,
			"byteOffset":59924,
			"target":34962
		}
	],
	"samplers":[
		{
			"magFilter":9729,
			"minFilter":9987
		}
	],
	"buffers":[
		{
			"byteLength":60116,
			"uri":"model.bin"
		}
	]
}
