{
	"asset":{
		"generator":"Khronos glTF Blender I/O v3.6.27",
		"version":"2.0"
	},
	"scene":0,
	"scenes":[
		{
			"name":"Scene",
			"nodes":[
				6
			]
		}
	],
	"nodes":[
		{
			"mesh":0,
			"name":"mirrorAArms_mirrorA_Mat_0",
			"rotation":[
				0,
				-1,
				0,
				4.371138828673793e-08
			],
			"scale":[
				0.014842677861452103,
				0.014842676930129528,
				0.014842676930129528
			],
			"translation":[
				0,
				-1.1224035024642944,
				0
			]
		},
		{
			"mesh":1,
			"name":"mirrorABasePlate_mirrorA_Mat_0",
			"rotation":[
				0,
				-1,
				0,
				4.371138828673793e-08
			],
			"scale":[
				0.014842677861452103,
				0.014842676930129528,
				0.014842676930129528
			],
			"translation":[
				0,
				-1.1224035024642944,
				0
			]
		},
		{
			"mesh":2,
			"name":"mirrorAFrame_mirrorA_Mat_0",
			"rotation":[
				0,
				-1,
				0,
				4.371138828673793e-08
			],
			"scale":[
				0.014842677861452103,
				0.014842676930129528,
				0.014842676930129528
			],
			"translation":[
				0,
				-1.1224035024642944,
				0
			]
		},
		{
			"mesh":3,
			"name":"mirrorALegs_mirrorA_Mat_0",
			"rotation":[
				0,
				-1,
				0,
				4.371138828673793e-08
			],
			"scale":[
				0.014842677861452103,
				0.014842676930129528,
				0.014842676930129528
			],
			"translation":[
				0,
				-1.1224035024642944,
				0
			]
		},
		{
			"mesh":4,
			"name":"mirrorAMirror_mirrorA_Mat_0",
			"rotation":[
				0,
				-1,
				0,
				4.371138828673793e-08
			],
			"scale":[
				0.014842677861452103,
				0.014842676930129528,
				0.014842676930129528
			],
			"translation":[
				0,
				-1.1224035024642944,
				0
			]
		},
		{
			"mesh":5,
			"name":"mirrorAMirrorBack_mirrorA_Mat_0",
			"rotation":[
				0,
				-1,
				0,
				4.371138828673793e-08
			],
			"scale":[
				0.014842677861452103,
				0.014842676930129528,
				0.014842676930129528
			],
			"translation":[
				0,
				-1.1224035024642944,
				0
			]
		},
		{
			"children":[
				0,
				1,
				2,
				3,
				4,
				5
			],
			"name":"mirror"
		}
	],
	"materials":[
		{
			"doubleSided":true,
			"name":"wood",
			"normalTexture":{
				"index":0,
				"scale":0.10000002384185791
			},
			"pbrMetallicRoughness":{
				"baseColorTexture":{
					"index":1
				},
				"metallicFactor":0.019370079040527344,
				"roughnessFactor":0.3722047209739685
			}
		},
		{
			"doubleSided":true,
			"name":"mirror",
			"pbrMetallicRoughness":{
				"baseColorFactor":[
					0.800000011920929,
					0.800000011920929,
					0.800000011920929,
					1
				],
				"roughnessFactor":0
			}
		}
	],
	"meshes":[
		{
			"name":"mirrorAArms_mirrorA_Mat_0",
			"primitives":[
				{
					"attributes":{
						"POSITION":0,
						"NORMAL":1,
						"TEXCOORD_0":2
					},
					"indices":3,
					"material":0
				}
			]
		},
		{
			"name":"mirrorABasePlate_mirrorA_Mat_0",
			"primitives":[
				{
					"attributes":{
						"POSITION":4,
						"NORMAL":5,
						"TEXCOORD_0":6
					},
					"indices":7,
					"material":0
				}
			]
		},
		{
			"name":"mirrorAFrame_mirrorA_Mat_0",
			"primitives":[
				{
					"attributes":{
						"POSITION":8,
						"NORMAL":9,
						"TEXCOORD_0":10
					},
					"indices":11,
					"material":0
				}
			]
		},
		{
			"name":"mirrorALegs_mirrorA_Mat_0",
			"primitives":[
				{
					"attributes":{
						"POSITION":12,
						"NORMAL":13,
						"TEXCOORD_0":14
					},
					"indices":15,
					"material":0
				}
			]
		},
		{
			"name":"mirrorAMirror_mirrorA_Mat_0",
			"primitives":[
				{
					"attributes":{
						"POSITION":16,
						"NORMAL":17,
						"TEXCOORD_0":18
					},
					"indices":19,
					"material":1
				}
			]
		},
		{
			"name":"mirrorAMirrorBack_mirrorA_Mat_0",
			"primitives":[
				{
					"attributes":{
						"POSITION":20,
						"NORMAL":21,
						"TEXCOORD_0":22
					},
					"indices":23,
					"material":0
				}
			]
		}
	],
	"textures":[
		{
			"sampler":0,
			"source":0
		},
		{
			"sampler":0,
			"source":1
		}
	],
	"images":[
		{
			"mimeType":"image/png",
			"name":"Image_2",
			"uri":"textures/Image_2.png"
		},
		{
			"mimeType":"image/png",
			"name":"Image_0",
			"uri":"textures/Image_0.png"
		}
	],
	"accessors":[
		{
			"bufferView":0,
			"componentType":5126,
			"count":4206,
			"max":[
				34.77010726928711,
				115.24358367919922,
				10.632494926452637
			],
			"min":[
				-34.77010726928711,
				9.220008850097656,
				-13.463082313537598
			],
			"type":"VEC3"
		},
		{
			"bufferView":1,
			"componentType":5126,
			"count":4206,
			"type":"VEC3"
		},
		{
			"bufferView":2,
			"componentType":5126,
			"count":4206,
			"type":"VEC2"
		},
		{
			"bufferView":3,
			"componentType":5123,
			"count":21792,
			"type":"SCALAR"
		},
		{
			"bufferView":4,
			"componentType":5126,
			"count":7692,
			"max":[
				35.80879592895508,
				9.810954093933105,
				16.291667938232422
			],
			"min":[
				-35.80881118774414,
				5.331483840942383,
				-16.291667938232422
			],
			"type":"VEC3"
		},
		{
			"bufferView":5,
			"componentType":5126,
			"count":7692,
			"type":"VEC3"
		},
		{
			"bufferView":6,
			"componentType":5126,
			"count":7692,
			"type":"VEC2"
		},
		{
			"bufferView":7,
			"componentType":5123,
			"count":40008,
			"type":"SCALAR"
		},
		{
			"bufferView":8,
			"componentType":5126,
			"count":322,
			"max":[
				30,
				176.45272827148438,
				10.437725067138672
			],
			"min":[
				-30,
				12.721961975097656,
				-7.871962547302246
			],
			"type":"VEC3"
		},
		{
			"bufferView":9,
			"componentType":5126,
			"count":322,
			"type":"VEC3"
		},
		{
			"bufferView":10,
			"componentType":5126,
			"count":322,
			"type":"VEC2"
		},
		{
			"bufferView":11,
			"componentType":5123,
			"count":1368,
			"type":"SCALAR"
		},
		{
			"bufferView":12,
			"componentType":5126,
			"count":3732,
			"max":[
				34.29145050048828,
				5.4469709396362305,
				18.38383674621582
			],
			"min":[
				-34.29145050048828,
				0.008110523223876953,
				-18.38383674621582
			],
			"type":"VEC3"
		},
		{
			"bufferView":13,
			"componentType":5126,
			"count":3732,
			"type":"VEC3"
		},
		{
			"bufferView":14,
			"componentType":5126,
			"count":3732,
			"type":"VEC2"
		},
		{
			"bufferView":15,
			"componentType":5123,
			"count":19968,
			"type":"SCALAR"
		},
		{
			"bufferView":16,
			"componentType":5126,
			"count":18,
			"max":[
				28.378494262695312,
				174.33328247070312,
				8.752718925476074
			],
			"min":[
				-28.2310848236084,
				14.757613182067871,
				-5.484559059143066
			],
			"type":"VEC3"
		},
		{
			"bufferView":17,
			"componentType":5126,
			"count":18,
			"type":"VEC3"
		},
		{
			"bufferView":18,
			"componentType":5126,
			"count":18,
			"type":"VEC2"
		},
		{
			"bufferView":19,
			"componentType":5123,
			"count":48,
			"type":"SCALAR"
		},
		{
			"bufferView":20,
			"componentType":5126,
			"count":18,
			"max":[
				28.378494262695312,
				174.21775817871094,
				7.457862377166748
			],
			"min":[
				-28.2310848236084,
				14.642086029052734,
				-6.779414653778076
			],
			"type":"VEC3"
		},
		{
			"bufferView":21,
			"componentType":5126,
			"count":18,
			"type":"VEC3"
		},
		{
			"bufferView":22,
			"componentType":5126,
			"count":18,
			"type":"VEC2"
		},
		{
			"bufferView":23,
			"componentType":5123,
			"count":48,
			"type":"SCALAR"
		}
	],
	"bufferViews":[
		{
			"buffer":0,
			"byteLength":50472,
			"byteOffset":0,
			"target":34962
		},
		{
			"buffer":0,
			"byteLength":50472,
			"byteOffset":50472,
			"target":34962
		},
		{
			"buffer":0,
			"byteLength":33648,
			"byteOffset":100944,
			"target":34962
		},
		{
			"buffer":0,
			"byteLength":43584,
			"byteOffset":134592,
			"target":34963
		},
		{
			"buffer":0,
			"byteLength":92304,
			"byteOffset":178176,
			"target":34962
		},
		{
			"buffer":0,
			"byteLength":92304,
			"byteOffset":270480,
			"target":34962
		},
		{
			"buffer":0,
			"byteLength":61536,
			"byteOffset":362784,
			"target":34962
		},
		{
			"buffer":0,
			"byteLength":80016,
			"byteOffset":424320,
			"target":34963
		},
		{
			"buffer":0,
			"byteLength":3864,
			"byteOffset":504336,
			"target":34962
		},
		{
			"buffer":0,
			"byteLength":3864,
			"byteOffset":508200,
			"target":34962
		},
		{
			"buffer":0,
			"byteLength":2576,
			"byteOffset":512064,
			"target":34962
		},
		{
			"buffer":0,
			"byteLength":2736,
			"byteOffset":514640,
			"target":34963
		},
		{
			"buffer":0,
			"byteLength":44784,
			"byteOffset":517376,
			"target":34962
		},
		{
			"buffer":0,
			"byteLength":44784,
			"byteOffset":562160,
			"target":34962
		},
		{
			"buffer":0,
			"byteLength":29856,
			"byteOffset":606944,
			"target":34962
		},
		{
			"buffer":0,
			"byteLength":39936,
			"byteOffset":636800,
			"target":34963
		},
		{
			"buffer":0,
			"byteLength":216,
			"byteOffset":676736,
			"target":34962
		},
		{
			"buffer":0,
			"byteLength":216,
			"byteOffset":676952,
			"target":34962
		},
		{
			"buffer":0,
			"byteLength":144,
			"byteOffset":677168,
			"target":34962
		},
		{
			"buffer":0,
			"byteLength":96,
			"byteOffset":677312,
			"target":34963
		},
		{
			"buffer":0,
			"byteLength":216,
			"byteOffset":677408,
			"target":34962
		},
		{
			"buffer":0,
			"byteLength":216,
			"byteOffset":677624,
			"target":34962
		},
		{
			"buffer":0,
			"byteLength":144,
			"byteOffset":677840,
			"target":34962
		},
		{
			"buffer":0,
			"byteLength":96,
			"byteOffset":677984,
			"target":34963
		}
	],
	"samplers":[
		{
			"magFilter":9729,
			"minFilter":9987
		}
	],
	"buffers":[
		{
			"byteLength":678080,
			"uri":"model.bin"
		}
	]
}
