{
	"asset":{
		"generator":"Khronos glTF Blender I/O v3.6.27",
		"version":"2.0"
	},
	"scene":0,
	"scenes":[
		{
			"name":"Scene",
			"nodes":[
				3
			]
		}
	],
	"nodes":[
		{
			"mesh":0,
			"name":"Brim2_Mat_0",
			"rotation":[
				0.686169445514679,
				0,
				0,
				0.7274418473243713
			],
			"scale":[
				0.16522015631198883,
				0.16522015631198883,
				0.16522015631198883
			],
			"translation":[
				0,
				-27.874326705932617,
				1.660709023475647
			]
		},
		{
			"mesh":1,
			"name":"Cap2_Mat_0",
			"rotation":[
				0.686169445514679,
				0,
				0,
				0.7274418473243713
			],
			"scale":[
				0.16522015631198883,
				0.16522015631198883,
				0.16522015631198883
			],
			"translation":[
				0,
				0.5416482090950012,
				0
			]
		},
		{
			"mesh":2,
			"name":"eyelets2_Baseball_Cap_0",
			"rotation":[
				0.686169445514679,
				0,
				0,
				0.7274418473243713
			],
			"scale":[
				0.16522015631198883,
				0.16522015631198883,
				0.16522015631198883
			],
			"translation":[
				0,
				-28.205713272094727,
				1.6800761222839355
			]
		},
		{
			"children":[
				0,
				1,
				2
			],
			"name":"scene",
			"scale":[
				0.5653790831565857,
				0.5653790831565857,
				0.5653790831565857
			]
		}
	],
	"materials":[
		{
			"doubleSided":true,
			"name":"material",
			"normalTexture":{
				"index":0
			},
			"pbrMetallicRoughness":{
				"baseColorTexture":{
					"index":1
				},
				"metallicFactor":0,
				"roughnessFactor":0.9881079196929932
			}
		}
	],
	"meshes":[
		{
			"name":"Brim2_Mat_0",
			"primitives":[
				{
					"attributes":{
						"POSITION":0,
						"NORMAL":1,
						"TEXCOORD_0":2
					},
					"indices":3,
					"material":0
				}
			]
		},
		{
			"name":"Cap2_Mat_0",
			"primitives":[
				{
					"attributes":{
						"POSITION":4,
						"NORMAL":5,
						"TEXCOORD_0":6
					},
					"indices":7,
					"material":0
				}
			]
		},
		{
			"name":"eyelets2_Baseball_Cap_0",
			"primitives":[
				{
					"attributes":{
						"POSITION":8,
						"NORMAL":9,
						"TEXCOORD_0":10
					},
					"indices":11,
					"material":0
				}
			]
		}
	],
	"textures":[
		{
			"sampler":0,
			"source":0
		},
		{
			"sampler":0,
			"source":1
		}
	],
	"images":[
		{
			"mimeType":"image/jpeg",
			"name":"material_normal",
			"uri":"textures/material_normal.jpg"
		},
		{
			"mimeType":"image/jpeg",
			"name":"Baseball_Cap_baseColor",
			"uri":"textures/Baseball_Cap_baseColor.jpg"
		}
	],
	"accessors":[
		{
			"bufferView":0,
			"componentType":5126,
			"count":1913,
			"max":[
				9.32624340057373,
				21.37811279296875,
				-168.028564453125
			],
			"min":[
				-9.326242446899414,
				7.497334003448486,
				-170.57196044921875
			],
			"type":"VEC3"
		},
		{
			"bufferView":1,
			"componentType":5126,
			"count":1913,
			"type":"VEC3"
		},
		{
			"bufferView":2,
			"componentType":5126,
			"count":1913,
			"type":"VEC2"
		},
		{
			"bufferView":3,
			"componentType":5123,
			"count":10992,
			"type":"SCALAR"
		},
		{
			"bufferView":4,
			"componentType":5126,
			"count":375,
			"max":[
				10.449013710021973,
				12.74518871307373,
				2.54095458984375
			],
			"min":[
				-10.468164443969727,
				-10.92654037475586,
				-7.9171905517578125
			],
			"type":"VEC3"
		},
		{
			"bufferView":5,
			"componentType":5126,
			"count":375,
			"type":"VEC3"
		},
		{
			"bufferView":6,
			"componentType":5126,
			"count":375,
			"type":"VEC2"
		},
		{
			"bufferView":7,
			"componentType":5123,
			"count":1710,
			"type":"SCALAR"
		},
		{
			"bufferView":8,
			"componentType":5126,
			"count":4154,
			"max":[
				8.38668155670166,
				7.20031213760376,
				-178.9818878173828
			],
			"min":[
				-8.38668155670166,
				-7.582324981689453,
				-182.5469207763672
			],
			"type":"VEC3"
		},
		{
			"bufferView":9,
			"componentType":5126,
			"count":4154,
			"type":"VEC3"
		},
		{
			"bufferView":10,
			"componentType":5126,
			"count":4154,
			"type":"VEC2"
		},
		{
			"bufferView":11,
			"componentType":5123,
			"count":24912,
			"type":"SCALAR"
		}
	],
	"bufferViews":[
		{
			"buffer":0,
			"byteLength":22956,
			"byteOffset":0,
			"target":34962
		},
		{
			"buffer":0,
			"byteLength":22956,
			"byteOffset":22956,
			"target":34962
		},
		{
			"buffer":0,
			"byteLength":15304,
			"byteOffset":45912,
			"target":34962
		},
		{
			"buffer":0,
			"byteLength":21984,
			"byteOffset":61216,
			"target":34963
		},
		{
			"buffer":0,
			"byteLength":4500,
			"byteOffset":83200,
			"target":34962
		},
		{
			"buffer":0,
			"byteLength":4500,
			"byteOffset":87700,
			"target":34962
		},
		{
			"buffer":0,
			"byteLength":3000,
			"byteOffset":92200,
			"target":34962
		},
		{
			"buffer":0,
			"byteLength":3420,
			"byteOffset":95200,
			"target":34963
		},
		{
			"buffer":0,
			"byteLength":49848,
			"byteOffset":98620,
			"target":34962
		},
		{
			"buffer":0,
			"byteLength":49848,
			"byteOffset":148468,
			"target":34962
		},
		{
			"buffer":0,
			"byteLength":33232,
			"byteOffset":198316,
			"target":34962
		},
		{
			"buffer":0,
			"byteLength":49824,
			"byteOffset":231548,
			"target":34963
		}
	],
	"samplers":[
		{
			"magFilter":9729,
			"minFilter":9987
		}
	],
	"buffers":[
		{
			"byteLength":281372,
			"uri":"model.bin"
		}
	]
}
