{
	"asset":{
		"generator":"Khronos glTF Blender I/O v3.6.27",
		"version":"2.0"
	},
	"scene":0,
	"scenes":[
		{
			"name":"Scene",
			"nodes":[
				0
			]
		}
	],
	"nodes":[
		{
			"mesh":0,
			"name":"Object_4",
			"rotation":[
				-0.3941592872142792,
				0.12633167207241058,
				0.5870591998100281,
				0.6957300901412964
			]
		}
	],
	"materials":[
		{
			"name":"material_0",
			"pbrMetallicRoughness":{
				"baseColorTexture":{
					"index":0
				},
				"metallicFactor":0,
				"roughnessFactor":0.8999999761581421
			}
		}
	],
	"meshes":[
		{
			"name":"Object_0",
			"primitives":[
				{
					"attributes":{
						"POSITION":0,
						"NORMAL":1,
						"TEXCOORD_0":2
					},
					"indices":3,
					"material":0
				}
			]
		}
	],
	"textures":[
		{
			"sampler":0,
			"source":0
		}
	],
	"images":[
		{
			"mimeType":"image/jpeg",
			"name":"material_0_baseColor",
			"uri":"textures/material_0_baseColor.jpg"
		}
	],
	"accessors":[
		{
			"bufferView":0,
			"componentType":5126,
			"count":28611,
			"max":[
				0.3314816951751709,
				0.4179530739784241,
				0.3301537334918976
			],
			"min":[
				-0.33065932989120483,
				-0.40721389651298523,
				-0.32254207134246826
			],
			"type":"VEC3"
		},
		{
			"bufferView":1,
			"componentType":5126,
			"count":28611,
			"type":"VEC3"
		},
		{
			"bufferView":2,
			"componentType":5126,
			"count":28611,
			"type":"VEC2"
		},
		{
			"bufferView":3,
			"componentType":5123,
			"count":149988,
			"type":"SCALAR"
		}
	],
	"bufferViews":[
		{
			"buffer":0,
			"byteLength":343332,
			"byteOffset":0,
			"target":34962
		},
		{
			"buffer":0,
			"byteLength":343332,
			"byteOffset":343332,
			"target":34962
		},
		{
			"buffer":0,
			"byteLength":228888,
			"byteOffset":686664,
			"target":34962
		},
		{
			"buffer":0,
			"byteLength":299976,
			"byteOffset":915552,
			"target":34963
		}
	],
	"samplers":[
		{
			"magFilter":9729,
			"minFilter":9987
		}
	],
	"buffers":[
		{
			"byteLength":1215528,
			"uri":"model.bin"
		}
	]
}
