{
	"asset":{
		"generator":"Khronos glTF Blender I/O v3.6.27",
		"version":"2.0"
	},
	"scene":0,
	"scenes":[
		{
			"name":"Scene",
			"nodes":[
				9
			]
		}
	],
	"nodes":[
		{
			"mesh":0,
			"name":"hover-helper",
			"scale":[
				1.3334213495254517,
				1.4277539253234863,
				0.138009175658226
			],
			"translation":[
				-0.07394442707300186,
				-1.478639006614685,
				0
			]
		},
		{
			"mesh":1,
			"name":"Object_11",
			"rotation":[
				0,
				0.7071069478988647,
				0,
				0.7071066498756409
			],
			"scale":[
				1.8601734638214111,
				1.8601735830307007,
				1.8601734638214111
			],
			"translation":[
				-0.04166986793279648,
				0.16925159096717834,
				0.00922781229019165
			]
		},
		{
			"mesh":2,
			"name":"Object_13",
			"rotation":[
				0,
				0.7071069478988647,
				0,
				0.7071066498756409
			],
			"scale":[
				1.8601734638214111,
				1.8601735830307007,
				1.8601734638214111
			],
			"translation":[
				-0.09923479706048965,
				1.5870845317840576,
				0.011110424995422363
			]
		},
		{
			"mesh":3,
			"name":"Object_15",
			"rotation":[
				0,
				0.7071069478988647,
				0,
				0.7071066498756409
			],
			"scale":[
				1.8601734638214111,
				1.8601735830307007,
				1.8601734638214111
			],
			"translation":[
				-0.054111652076244354,
				1.8878527879714966,
				-0.019937880337238312
			]
		},
		{
			"mesh":4,
			"name":"Object_16",
			"rotation":[
				0,
				0.7071069478988647,
				0,
				0.7071066498756409
			],
			"scale":[
				1.8601734638214111,
				1.8601735830307007,
				1.8601734638214111
			],
			"translation":[
				-0.0077397823333740234,
				1.4333946704864502,
				0.00034128129482269287
			]
		},
		{
			"mesh":5,
			"name":"Object_4",
			"rotation":[
				0,
				0.7071069478988647,
				0,
				0.7071066498756409
			],
			"scale":[
				1.8601734638214111,
				1.8601735830307007,
				1.8601734638214111
			],
			"translation":[
				-0.029454030096530914,
				2.18232798576355,
				0.011110469698905945
			]
		},
		{
			"mesh":6,
			"name":"Object_6",
			"rotation":[
				0,
				0.7071069478988647,
				0,
				0.7071066498756409
			],
			"scale":[
				1.8601734638214111,
				1.8601735830307007,
				1.8601734638214111
			],
			"translation":[
				0.04817415028810501,
				1.384232521057129,
				0.11953538656234741
			]
		},
		{
			"mesh":7,
			"name":"Object_8",
			"rotation":[
				0,
				0.7071069478988647,
				0,
				0.7071066498756409
			],
			"scale":[
				1.8601734638214111,
				1.8601735830307007,
				1.8601734638214111
			],
			"translation":[
				-0.02579546719789505,
				1.4789035320281982,
				0.043558716773986816
			]
		},
		{
			"mesh":8,
			"name":"Object_9",
			"rotation":[
				0,
				0.7071069478988647,
				0,
				0.7071066498756409
			],
			"scale":[
				1.8601734638214111,
				1.8601735830307007,
				1.8601734638214111
			],
			"translation":[
				-0.0826575756072998,
				1.5178431272506714,
				0.026972174644470215
			]
		},
		{
			"children":[
				0,
				1,
				2,
				3,
				4,
				5,
				6,
				7,
				8
			],
			"name":"fire-exit"
		}
	],
	"materials":[
		{
			"doubleSided":true,
			"name":"Metal_Guard",
			"pbrMetallicRoughness":{
				"baseColorFactor":[
					0.2538506090641022,
					0.2538506090641022,
					0.2538506090641022,
					1
				],
				"metallicFactor":0,
				"metallicRoughnessTexture":{
					"index":0
				},
				"roughnessFactor":0.7009299397468567
			}
		},
		{
			"doubleSided":true,
			"name":"c790c7f50dab9e8a5c5f82b94b61fbc8",
			"pbrMetallicRoughness":{
				"baseColorTexture":{
					"index":1
				},
				"metallicFactor":0,
				"roughnessFactor":0.09545449912548065
			}
		},
		{
			"doubleSided":true,
			"name":"Rear_Doors.001",
			"pbrMetallicRoughness":{
				"baseColorFactor":[
					0.3108130097389221,
					0.021529387682676315,
					0.023406488820910454,
					1
				],
				"metallicFactor":0,
				"roughnessFactor":0.5651159882545471
			}
		},
		{
			"doubleSided":true,
			"name":"Material.139",
			"pbrMetallicRoughness":{
				"baseColorFactor":[
					0.3206165134906769,
					0.3206165134906769,
					0.3206165134906769,
					1
				],
				"metallicFactor":0,
				"roughnessFactor":0.23636400699615479
			}
		},
		{
			"doubleSided":true,
			"name":"316313476cfe2ddee7782e7855b64367",
			"pbrMetallicRoughness":{
				"baseColorTexture":{
					"index":2
				},
				"metallicFactor":0,
				"roughnessFactor":0.12727299332618713
			}
		},
		{
			"doubleSided":true,
			"name":"Chrome_Handle",
			"pbrMetallicRoughness":{
				"baseColorFactor":[
					0.0732354000210762,
					0.0732354000210762,
					0.0732354000210762,
					1
				],
				"metallicFactor":0,
				"roughnessFactor":0.027272699400782585
			}
		},
		{
			"doubleSided":true,
			"name":"Handle_mech",
			"pbrMetallicRoughness":{
				"baseColorFactor":[
					0.15230999886989594,
					0.15230999886989594,
					0.15230999886989594,
					1
				],
				"metallicFactor":0,
				"roughnessFactor":0.5975670218467712
			}
		},
		{
			"doubleSided":true,
			"name":"Metal_Guard.001",
			"pbrMetallicRoughness":{
				"baseColorFactor":[
					0.3417455852031708,
					0.2923799455165863,
					0.06229173764586449,
					1
				],
				"metallicFactor":0.7313308119773865,
				"metallicRoughnessTexture":{
					"index":3
				},
				"roughnessFactor":0.2205962836742401
			}
		}
	],
	"meshes":[
		{
			"name":"Cube.002",
			"primitives":[
				{
					"attributes":{
						"POSITION":0,
						"NORMAL":1,
						"TEXCOORD_0":2
					},
					"indices":3
				}
			]
		},
		{
			"name":"Object_4",
			"primitives":[
				{
					"attributes":{
						"POSITION":4,
						"NORMAL":5,
						"TEXCOORD_0":6,
						"TEXCOORD_1":7,
						"TEXCOORD_2":8,
						"TEXCOORD_3":9
					},
					"indices":10,
					"material":0
				}
			]
		},
		{
			"name":"Object_5",
			"primitives":[
				{
					"attributes":{
						"POSITION":11,
						"NORMAL":12,
						"TEXCOORD_0":13
					},
					"indices":14,
					"material":1
				}
			]
		},
		{
			"name":"Object_6",
			"primitives":[
				{
					"attributes":{
						"POSITION":15,
						"NORMAL":16,
						"TEXCOORD_0":17
					},
					"indices":18,
					"material":2
				}
			]
		},
		{
			"name":"Object_7",
			"primitives":[
				{
					"attributes":{
						"POSITION":19,
						"NORMAL":20,
						"TEXCOORD_0":21
					},
					"indices":22,
					"material":3
				}
			]
		},
		{
			"name":"Object_0",
			"primitives":[
				{
					"attributes":{
						"POSITION":23,
						"NORMAL":24,
						"TEXCOORD_0":25
					},
					"indices":14,
					"material":4
				}
			]
		},
		{
			"name":"Object_1",
			"primitives":[
				{
					"attributes":{
						"POSITION":26,
						"NORMAL":27,
						"TEXCOORD_0":28
					},
					"indices":29,
					"material":5
				}
			]
		},
		{
			"name":"Object_2",
			"primitives":[
				{
					"attributes":{
						"POSITION":30,
						"NORMAL":31,
						"TEXCOORD_0":32
					},
					"indices":33,
					"material":6
				}
			]
		},
		{
			"name":"Object_3",
			"primitives":[
				{
					"attributes":{
						"POSITION":34,
						"NORMAL":35,
						"TEXCOORD_0":36,
						"TEXCOORD_1":37,
						"TEXCOORD_2":38,
						"TEXCOORD_3":39
					},
					"indices":40,
					"material":7
				}
			]
		}
	],
	"textures":[
		{
			"sampler":0,
			"source":0
		},
		{
			"sampler":1,
			"source":1
		},
		{
			"sampler":1,
			"source":2
		},
		{
			"sampler":0,
			"source":3
		}
	],
	"images":[
		{
			"mimeType":"image/png",
			"name":"Image_3",
			"uri":"textures/Image_3.png"
		},
		{
			"mimeType":"image/png",
			"name":"Image_4",
			"uri":"textures/Image_4.png"
		},
		{
			"mimeType":"image/png",
			"name":"Image_0",
			"uri":"textures/Image_0.png"
		},
		{
			"mimeType":"image/png",
			"name":"Image_1",
			"uri":"textures/Image_1.png"
		}
	],
	"accessors":[
		{
			"bufferView":0,
			"componentType":5126,
			"count":24,
			"max":[
				1,
				1,
				1
			],
			"min":[
				-1,
				-1,
				-1
			],
			"type":"VEC3"
		},
		{
			"bufferView":1,
			"componentType":5126,
			"count":24,
			"type":"VEC3"
		},
		{
			"bufferView":2,
			"componentType":5126,
			"count":24,
			"type":"VEC2"
		},
		{
			"bufferView":3,
			"componentType":5123,
			"count":36,
			"type":"SCALAR"
		},
		{
			"bufferView":4,
			"componentType":5126,
			"count":48,
			"max":[
				0.002988457679748535,
				0.066875159740448,
				0.6607422828674316
			],
			"min":[
				-0.002988457679748535,
				-0.06687521934509277,
				-0.6583133339881897
			],
			"type":"VEC3"
		},
		{
			"bufferView":5,
			"componentType":5126,
			"count":48,
			"type":"VEC3"
		},
		{
			"bufferView":6,
			"componentType":5126,
			"count":48,
			"type":"VEC2"
		},
		{
			"bufferView":7,
			"componentType":5126,
			"count":48,
			"type":"VEC2"
		},
		{
			"bufferView":8,
			"componentType":5126,
			"count":48,
			"type":"VEC2"
		},
		{
			"bufferView":9,
			"componentType":5126,
			"count":48,
			"type":"VEC2"
		},
		{
			"bufferView":10,
			"componentType":5123,
			"count":72,
			"type":"SCALAR"
		},
		{
			"bufferView":11,
			"componentType":5126,
			"count":8,
			"max":[
				8.940696716308594e-08,
				0.040897369384765625,
				0.5039185881614685
			],
			"min":[
				-7.450580596923828e-08,
				-0.040897369384765625,
				-0.431596040725708
			],
			"type":"VEC3"
		},
		{
			"bufferView":12,
			"componentType":5126,
			"count":8,
			"type":"VEC3"
		},
		{
			"bufferView":13,
			"componentType":5126,
			"count":8,
			"type":"VEC2"
		},
		{
			"bufferView":14,
			"componentType":5123,
			"count":12,
			"type":"SCALAR"
		},
		{
			"bufferView":15,
			"componentType":5126,
			"count":385,
			"max":[
				0.013241246342658997,
				0.553363561630249,
				0.731252133846283
			],
			"min":[
				-0.041835010051727295,
				-1.0142731666564941,
				-0.7221111059188843
			],
			"type":"VEC3"
		},
		{
			"bufferView":16,
			"componentType":5126,
			"count":385,
			"type":"VEC3"
		},
		{
			"bufferView":17,
			"componentType":5126,
			"count":385,
			"type":"VEC2"
		},
		{
			"bufferView":18,
			"componentType":5123,
			"count":588,
			"type":"SCALAR"
		},
		{
			"bufferView":19,
			"componentType":5126,
			"count":20,
			"max":[
				0.013017341494560242,
				0.7699636220932007,
				0.015458684414625168
			],
			"min":[
				-0.00913982093334198,
				-0.7699635624885559,
				-0.014865104109048843
			],
			"type":"VEC3"
		},
		{
			"bufferView":20,
			"componentType":5126,
			"count":20,
			"type":"VEC3"
		},
		{
			"bufferView":21,
			"componentType":5126,
			"count":20,
			"type":"VEC2"
		},
		{
			"bufferView":22,
			"componentType":5123,
			"count":30,
			"type":"SCALAR"
		},
		{
			"bufferView":23,
			"componentType":5126,
			"count":8,
			"max":[
				0,
				0.07082521915435791,
				0.48911982774734497
			],
			"min":[
				0,
				-0.07082521915435791,
				-0.48911982774734497
			],
			"type":"VEC3"
		},
		{
			"bufferView":24,
			"componentType":5126,
			"count":8,
			"type":"VEC3"
		},
		{
			"bufferView":25,
			"componentType":5126,
			"count":8,
			"type":"VEC2"
		},
		{
			"bufferView":26,
			"componentType":5126,
			"count":355,
			"max":[
				0.010372743010520935,
				0.01085573434829712,
				0.5739736557006836
			],
			"min":[
				-0.010371461510658264,
				-0.010852575302124023,
				-0.674807071685791
			],
			"type":"VEC3"
		},
		{
			"bufferView":27,
			"componentType":5126,
			"count":355,
			"type":"VEC3"
		},
		{
			"bufferView":28,
			"componentType":5126,
			"count":355,
			"type":"VEC2"
		},
		{
			"bufferView":29,
			"componentType":5123,
			"count":888,
			"type":"SCALAR"
		},
		{
			"bufferView":30,
			"componentType":5126,
			"count":6627,
			"max":[
				0.043147340416908264,
				0.7503911256790161,
				0.621313750743866
			],
			"min":[
				-0.06194432079792023,
				-0.7848320007324219,
				-0.6426173448562622
			],
			"type":"VEC3"
		},
		{
			"bufferView":31,
			"componentType":5126,
			"count":6627,
			"type":"VEC3"
		},
		{
			"bufferView":32,
			"componentType":5126,
			"count":6627,
			"type":"VEC2"
		},
		{
			"bufferView":33,
			"componentType":5123,
			"count":10188,
			"type":"SCALAR"
		},
		{
			"bufferView":34,
			"componentType":5126,
			"count":32,
			"max":[
				0.0050361305475234985,
				0.01118457317352295,
				0.019587388262152672
			],
			"min":[
				-0.0050361305475234985,
				-0.01118457317352295,
				-0.02625216729938984
			],
			"type":"VEC3"
		},
		{
			"bufferView":35,
			"componentType":5126,
			"count":32,
			"type":"VEC3"
		},
		{
			"bufferView":36,
			"componentType":5126,
			"count":32,
			"type":"VEC2"
		},
		{
			"bufferView":37,
			"componentType":5126,
			"count":32,
			"type":"VEC2"
		},
		{
			"bufferView":38,
			"componentType":5126,
			"count":32,
			"type":"VEC2"
		},
		{
			"bufferView":39,
			"componentType":5126,
			"count":32,
			"type":"VEC2"
		},
		{
			"bufferView":40,
			"componentType":5123,
			"count":54,
			"type":"SCALAR"
		}
	],
	"bufferViews":[
		{
			"buffer":0,
			"byteLength":288,
			"byteOffset":0,
			"target":34962
		},
		{
			"buffer":0,
			"byteLength":288,
			"byteOffset":288,
			"target":34962
		},
		{
			"buffer":0,
			"byteLength":192,
			"byteOffset":576,
			"target":34962
		},
		{
			"buffer":0,
			"byteLength":72,
			"byteOffset":768,
			"target":34963
		},
		{
			"buffer":0,
			"byteLength":576,
			"byteOffset":840,
			"target":34962
		},
		{
			"buffer":0,
			"byteLength":576,
			"byteOffset":1416,
			"target":34962
		},
		{
			"buffer":0,
			"byteLength":384,
			"byteOffset":1992,
			"target":34962
		},
		{
			"buffer":0,
			"byteLength":384,
			"byteOffset":2376,
			"target":34962
		},
		{
			"buffer":0,
			"byteLength":384,
			"byteOffset":2760,
			"target":34962
		},
		{
			"buffer":0,
			"byteLength":384,
			"byteOffset":3144,
			"target":34962
		},
		{
			"buffer":0,
			"byteLength":144,
			"byteOffset":3528,
			"target":34963
		},
		{
			"buffer":0,
			"byteLength":96,
			"byteOffset":3672,
			"target":34962
		},
		{
			"buffer":0,
			"byteLength":96,
			"byteOffset":3768,
			"target":34962
		},
		{
			"buffer":0,
			"byteLength":64,
			"byteOffset":3864,
			"target":34962
		},
		{
			"buffer":0,
			"byteLength":24,
			"byteOffset":3928,
			"target":34963
		},
		{
			"buffer":0,
			"byteLength":4620,
			"byteOffset":3952,
			"target":34962
		},
		{
			"buffer":0,
			"byteLength":4620,
			"byteOffset":8572,
			"target":34962
		},
		{
			"buffer":0,
			"byteLength":3080,
			"byteOffset":13192,
			"target":34962
		},
		{
			"buffer":0,
			"byteLength":1176,
			"byteOffset":16272,
			"target":34963
		},
		{
			"buffer":0,
			"byteLength":240,
			"byteOffset":17448,
			"target":34962
		},
		{
			"buffer":0,
			"byteLength":240,
			"byteOffset":17688,
			"target":34962
		},
		{
			"buffer":0,
			"byteLength":160,
			"byteOffset":17928,
			"target":34962
		},
		{
			"buffer":0,
			"byteLength":60,
			"byteOffset":18088,
			"target":34963
		},
		{
			"buffer":0,
			"byteLength":96,
			"byteOffset":18148,
			"target":34962
		},
		{
			"buffer":0,
			"byteLength":96,
			"byteOffset":18244,
			"target":34962
		},
		{
			"buffer":0,
			"byteLength":64,
			"byteOffset":18340,
			"target":34962
		},
		{
			"buffer":0,
			"byteLength":4260,
			"byteOffset":18404,
			"target":34962
		},
		{
			"buffer":0,
			"byteLength":4260,
			"byteOffset":22664,
			"target":34962
		},
		{
			"buffer":0,
			"byteLength":2840,
			"byteOffset":26924,
			"target":34962
		},
		{
			"buffer":0,
			"byteLength":1776,
			"byteOffset":29764,
			"target":34963
		},
		{
			"buffer":0,
			"byteLength":79524,
			"byteOffset":31540,
			"target":34962
		},
		{
			"buffer":0,
			"byteLength":79524,
			"byteOffset":111064,
			"target":34962
		},
		{
			"buffer":0,
			"byteLength":53016,
			"byteOffset":190588,
			"target":34962
		},
		{
			"buffer":0,
			"byteLength":20376,
			"byteOffset":243604,
			"target":34963
		},
		{
			"buffer":0,
			"byteLength":384,
			"byteOffset":263980,
			"target":34962
		},
		{
			"buffer":0,
			"byteLength":384,
			"byteOffset":264364,
			"target":34962
		},
		{
			"buffer":0,
			"byteLength":256,
			"byteOffset":264748,
			"target":34962
		},
		{
			"buffer":0,
			"byteLength":256,
			"byteOffset":265004,
			"target":34962
		},
		{
			"buffer":0,
			"byteLength":256,
			"byteOffset":265260,
			"target":34962
		},
		{
			"buffer":0,
			"byteLength":256,
			"byteOffset":265516,
			"target":34962
		},
		{
			"buffer":0,
			"byteLength":108,
			"byteOffset":265772,
			"target":34963
		}
	],
	"samplers":[
		{
			"magFilter":9729,
			"minFilter":9987
		},
		{
			"magFilter":9729,
			"minFilter":9987,
			"wrapS":33071,
			"wrapT":33071
		}
	],
	"buffers":[
		{
			"byteLength":265880,
			"uri":"model.bin"
		}
	]
}
