{
	"asset":{
		"generator":"Khronos glTF Blender I/O v3.6.27",
		"version":"2.0"
	},
	"scene":0,
	"scenes":[
		{
			"name":"Scene",
			"nodes":[
				0,
				1
			]
		}
	],
	"nodes":[
		{
			"mesh":0,
			"name":"speaker"
		},
		{
			"mesh":1,
			"name":"hover-helper",
			"scale":[
				1.8529016971588135,
				1,
				1
			],
			"translation":[
				0,
				0.8963462710380554,
				0
			]
		}
	],
	"materials":[
		{
			"doubleSided":true,
			"name":"material_0",
			"pbrMetallicRoughness":{
				"metallicFactor":0,
				"roughnessFactor":0.6000000238418579
			}
		},
		{
			"doubleSided":true,
			"name":"Material.001",
			"pbrMetallicRoughness":{
				"baseColorFactor":[
					0.10787300020456314,
					0.10697299987077713,
					0.12333100289106369,
					1
				],
				"metallicFactor":0,
				"roughnessFactor":0.6000000238418579
			}
		},
		{
			"doubleSided":true,
			"name":"Material.002",
			"pbrMetallicRoughness":{
				"baseColorFactor":[
					0.10381799936294556,
					0.10381799936294556,
					0.10381799936294556,
					1
				],
				"metallicFactor":0,
				"roughnessFactor":0.6000000238418579
			}
		},
		{
			"doubleSided":true,
			"name":"Material.004",
			"pbrMetallicRoughness":{
				"baseColorFactor":[
					0.6777539849281311,
					0.005935450084507465,
					0.001776639954186976,
					1
				],
				"metallicFactor":0,
				"roughnessFactor":0.6000000238418579
			}
		},
		{
			"doubleSided":true,
			"name":"Material.003",
			"pbrMetallicRoughness":{
				"baseColorFactor":[
					0.800000011920929,
					0.800000011920929,
					0.800000011920929,
					1
				],
				"metallicFactor":0,
				"roughnessFactor":0.6000000238418579
			}
		},
		{
			"doubleSided":true,
			"name":"Emission",
			"pbrMetallicRoughness":{
				"baseColorFactor":[
					0.21609899401664734,
					0.21609899401664734,
					0.21609899401664734,
					1
				],
				"metallicFactor":0,
				"roughnessFactor":0.6000000238418579
			}
		}
	],
	"meshes":[
		{
			"name":"Object_5",
			"primitives":[
				{
					"attributes":{
						"POSITION":0,
						"NORMAL":1,
						"TEXCOORD_0":2
					},
					"indices":3,
					"material":0
				},
				{
					"attributes":{
						"POSITION":4,
						"NORMAL":5,
						"TEXCOORD_0":6
					},
					"indices":7,
					"material":1
				},
				{
					"attributes":{
						"POSITION":8,
						"NORMAL":9,
						"TEXCOORD_0":10
					},
					"indices":11,
					"material":2
				},
				{
					"attributes":{
						"POSITION":12,
						"NORMAL":13,
						"TEXCOORD_0":14
					},
					"indices":15,
					"material":3
				},
				{
					"attributes":{
						"POSITION":16,
						"NORMAL":17,
						"TEXCOORD_0":18
					},
					"indices":19,
					"material":4
				},
				{
					"attributes":{
						"POSITION":20,
						"NORMAL":21,
						"TEXCOORD_0":22
					},
					"indices":23,
					"material":5
				}
			]
		},
		{
			"name":"Cube",
			"primitives":[
				{
					"attributes":{
						"POSITION":24,
						"NORMAL":25,
						"TEXCOORD_0":26
					},
					"indices":27
				}
			]
		}
	],
	"accessors":[
		{
			"bufferView":0,
			"componentType":5126,
			"count":2525,
			"max":[
				0.11595828086137772,
				0.9410407543182373,
				0.7076576352119446
			],
			"min":[
				-0.10861530900001526,
				0.8119118213653564,
				0.6688386797904968
			],
			"type":"VEC3"
		},
		{
			"bufferView":1,
			"componentType":5126,
			"count":2525,
			"type":"VEC3"
		},
		{
			"bufferView":2,
			"componentType":5126,
			"count":2525,
			"type":"VEC2"
		},
		{
			"bufferView":3,
			"componentType":5123,
			"count":3846,
			"type":"SCALAR"
		},
		{
			"bufferView":4,
			"componentType":5126,
			"count":8935,
			"max":[
				1.5815527439117432,
				1.5006332397460938,
				0.6883339285850525
			],
			"min":[
				-1.5815521478652954,
				0.1395980715751648,
				-0.6883341670036316
			],
			"type":"VEC3"
		},
		{
			"bufferView":5,
			"componentType":5126,
			"count":8935,
			"type":"VEC3"
		},
		{
			"bufferView":6,
			"componentType":5126,
			"count":8935,
			"type":"VEC2"
		},
		{
			"bufferView":7,
			"componentType":5123,
			"count":51456,
			"type":"SCALAR"
		},
		{
			"bufferView":8,
			"componentType":5126,
			"count":59309,
			"max":[
				1.702619194984436,
				1.5093735456466675,
				0.627949595451355
			],
			"min":[
				-1.7036678791046143,
				0.011524200439453125,
				-0.6814876198768616
			],
			"type":"VEC3"
		},
		{
			"bufferView":9,
			"componentType":5126,
			"count":59309,
			"type":"VEC3"
		},
		{
			"bufferView":10,
			"componentType":5126,
			"count":59309,
			"type":"VEC2"
		},
		{
			"bufferView":11,
			"componentType":5123,
			"count":189912,
			"type":"SCALAR"
		},
		{
			"bufferView":12,
			"componentType":5126,
			"count":612,
			"max":[
				0.14571613073349,
				1.0057146549224854,
				0.699795126914978
			],
			"min":[
				-0.1445097029209137,
				0.7309495806694031,
				0.6477822065353394
			],
			"type":"VEC3"
		},
		{
			"bufferView":13,
			"componentType":5126,
			"count":612,
			"type":"VEC3"
		},
		{
			"bufferView":14,
			"componentType":5126,
			"count":612,
			"type":"VEC2"
		},
		{
			"bufferView":15,
			"componentType":5123,
			"count":2976,
			"type":"SCALAR"
		},
		{
			"bufferView":16,
			"componentType":5126,
			"count":3241,
			"max":[
				0.2576380968093872,
				0.45986708998680115,
				-0.557134747505188
			],
			"min":[
				-0.2623275816440582,
				0.38449639081954956,
				-0.6103639006614685
			],
			"type":"VEC3"
		},
		{
			"bufferView":17,
			"componentType":5126,
			"count":3241,
			"type":"VEC3"
		},
		{
			"bufferView":18,
			"componentType":5126,
			"count":3241,
			"type":"VEC2"
		},
		{
			"bufferView":19,
			"componentType":5123,
			"count":4068,
			"type":"SCALAR"
		},
		{
			"bufferView":20,
			"componentType":5126,
			"count":5150,
			"max":[
				0.23411788046360016,
				1.5047184228897095,
				0.3146168887615204
			],
			"min":[
				-0.23039378225803375,
				0.18692560493946075,
				-0.08309514075517654
			],
			"type":"VEC3"
		},
		{
			"bufferView":21,
			"componentType":5126,
			"count":5150,
			"type":"VEC3"
		},
		{
			"bufferView":22,
			"componentType":5126,
			"count":5150,
			"type":"VEC2"
		},
		{
			"bufferView":23,
			"componentType":5123,
			"count":6876,
			"type":"SCALAR"
		},
		{
			"bufferView":24,
			"componentType":5126,
			"count":24,
			"max":[
				1,
				1,
				1
			],
			"min":[
				-1,
				-1,
				-1
			],
			"type":"VEC3"
		},
		{
			"bufferView":25,
			"componentType":5126,
			"count":24,
			"type":"VEC3"
		},
		{
			"bufferView":26,
			"componentType":5126,
			"count":24,
			"type":"VEC2"
		},
		{
			"bufferView":27,
			"componentType":5123,
			"count":36,
			"type":"SCALAR"
		}
	],
	"bufferViews":[
		{
			"buffer":0,
			"byteLength":30300,
			"byteOffset":0,
			"target":34962
		},
		{
			"buffer":0,
			"byteLength":30300,
			"byteOffset":30300,
			"target":34962
		},
		{
			"buffer":0,
			"byteLength":20200,
			"byteOffset":60600,
			"target":34962
		},
		{
			"buffer":0,
			"byteLength":7692,
			"byteOffset":80800,
			"target":34963
		},
		{
			"buffer":0,
			"byteLength":107220,
			"byteOffset":88492,
			"target":34962
		},
		{
			"buffer":0,
			"byteLength":107220,
			"byteOffset":195712,
			"target":34962
		},
		{
			"buffer":0,
			"byteLength":71480,
			"byteOffset":302932,
			"target":34962
		},
		{
			"buffer":0,
			"byteLength":102912,
			"byteOffset":374412,
			"target":34963
		},
		{
			"buffer":0,
			"byteLength":711708,
			"byteOffset":477324,
			"target":34962
		},
		{
			"buffer":0,
			"byteLength":711708,
			"byteOffset":1189032,
			"target":34962
		},
		{
			"buffer":0,
			"byteLength":474472,
			"byteOffset":1900740,
			"target":34962
		},
		{
			"buffer":0,
			"byteLength":379824,
			"byteOffset":2375212,
			"target":34963
		},
		{
			"buffer":0,
			"byteLength":7344,
			"byteOffset":2755036,
			"target":34962
		},
		{
			"buffer":0,
			"byteLength":7344,
			"byteOffset":2762380,
			"target":34962
		},
		{
			"buffer":0,
			"byteLength":4896,
			"byteOffset":2769724,
			"target":34962
		},
		{
			"buffer":0,
			"byteLength":5952,
			"byteOffset":2774620,
			"target":34963
		},
		{
			"buffer":0,
			"byteLength":38892,
			"byteOffset":2780572,
			"target":34962
		},
		{
			"buffer":0,
			"byteLength":38892,
			"byteOffset":2819464,
			"target":34962
		},
		{
			"buffer":0,
			"byteLength":25928,
			"byteOffset":2858356,
			"target":34962
		},
		{
			"buffer":0,
			"byteLength":8136,
			"byteOffset":2884284,
			"target":34963
		},
		{
			"buffer":0,
			"byteLength":61800,
			"byteOffset":2892420,
			"target":34962
		},
		{
			"buffer":0,
			"byteLength":61800,
			"byteOffset":2954220,
			"target":34962
		},
		{
			"buffer":0,
			"byteLength":41200,
			"byteOffset":3016020,
			"target":34962
		},
		{
			"buffer":0,
			"byteLength":13752,
			"byteOffset":3057220,
			"target":34963
		},
		{
			"buffer":0,
			"byteLength":288,
			"byteOffset":3070972,
			"target":34962
		},
		{
			"buffer":0,
			"byteLength":288,
			"byteOffset":3071260,
			"target":34962
		},
		{
			"buffer":0,
			"byteLength":192,
			"byteOffset":3071548,
			"target":34962
		},
		{
			"buffer":0,
			"byteLength":72,
			"byteOffset":3071740,
			"target":34963
		}
	],
	"buffers":[
		{
			"byteLength":3071812,
			"uri":"model.bin"
		}
	]
}
