{
	"asset":{
		"generator":"Khronos glTF Blender I/O v3.6.27",
		"version":"2.0"
	},
	"scene":0,
	"scenes":[
		{
			"name":"Scene",
			"nodes":[
				0,
				1
			]
		}
	],
	"nodes":[
		{
			"mesh":0,
			"name":"body",
			"rotation":[
				-0.70710688829422,
				0,
				0,
				0.7071066498756409
			],
			"scale":[
				0.03359663486480713,
				0.03359663113951683,
				0.03359663113951683
			],
			"translation":[
				0,
				-0.1517639309167862,
				0
			]
		},
		{
			"mesh":1,
			"name":"windows",
			"rotation":[
				-0.70710688829422,
				0,
				0,
				0.7071066498756409
			],
			"scale":[
				0.03359663486480713,
				0.03359663113951683,
				0.03359663113951683
			],
			"translation":[
				0,
				-0.1517639309167862,
				0
			]
		}
	],
	"materials":[
		{
			"doubleSided":true,
			"name":"Material_33",
			"normalTexture":{
				"index":0
			},
			"occlusionTexture":{
				"index":1
			},
			"pbrMetallicRoughness":{
				"baseColorTexture":{
					"index":2
				},
				"metallicRoughnessTexture":{
					"index":1
				}
			}
		},
		{
			"alphaMode":"BLEND",
			"doubleSided":true,
			"name":"Material_34",
			"normalTexture":{
				"index":3
			},
			"occlusionTexture":{
				"index":4
			},
			"pbrMetallicRoughness":{
				"baseColorTexture":{
					"index":5
				},
				"metallicRoughnessTexture":{
					"index":4
				}
			}
		}
	],
	"meshes":[
		{
			"name":"Object001_Material #33_0",
			"primitives":[
				{
					"attributes":{
						"POSITION":0,
						"NORMAL":1,
						"TEXCOORD_0":2
					},
					"indices":3,
					"material":0
				}
			]
		},
		{
			"name":"Object002_Material #34_0",
			"primitives":[
				{
					"attributes":{
						"POSITION":4,
						"NORMAL":5,
						"TEXCOORD_0":6,
						"TEXCOORD_1":7
					},
					"indices":8,
					"material":1
				}
			]
		}
	],
	"textures":[
		{
			"sampler":0,
			"source":0
		},
		{
			"sampler":0,
			"source":1
		},
		{
			"sampler":0,
			"source":2
		},
		{
			"sampler":0,
			"source":3
		},
		{
			"sampler":0,
			"source":1
		},
		{
			"sampler":0,
			"source":4
		}
	],
	"images":[
		{
			"mimeType":"image/png",
			"name":"Material_33_normal",
			"uri":"textures/Material_33_normal.png"
		},
		{
			"mimeType":"image/png",
			"name":"Material_33_metallicRoughness",
			"uri":"textures/Material_33_metallicRoughness.png"
		},
		{
			"mimeType":"image/png",
			"name":"Material_33_baseColor",
			"uri":"textures/Material_33_baseColor.png"
		},
		{
			"mimeType":"image/png",
			"name":"Material_34_normal",
			"uri":"textures/Material_34_normal.png"
		},
		{
			"mimeType":"image/png",
			"name":"Material_34_baseColor",
			"uri":"textures/Material_34_baseColor.png"
		}
	],
	"accessors":[
		{
			"bufferView":0,
			"componentType":5126,
			"count":3850,
			"max":[
				44.907814025878906,
				110.69435119628906,
				74.21553802490234
			],
			"min":[
				-44.907814025878906,
				-100.74676513671875,
				2.9524707794189453
			],
			"type":"VEC3"
		},
		{
			"bufferView":1,
			"componentType":5126,
			"count":3850,
			"type":"VEC3"
		},
		{
			"bufferView":2,
			"componentType":5126,
			"count":3850,
			"type":"VEC2"
		},
		{
			"bufferView":3,
			"componentType":5123,
			"count":11763,
			"type":"SCALAR"
		},
		{
			"bufferView":4,
			"componentType":5126,
			"count":62,
			"max":[
				36.4100456237793,
				11.713659286499023,
				71.55856323242188
			],
			"min":[
				-36.4100456237793,
				-44.25879669189453,
				51.25664520263672
			],
			"type":"VEC3"
		},
		{
			"bufferView":5,
			"componentType":5126,
			"count":62,
			"type":"VEC3"
		},
		{
			"bufferView":6,
			"componentType":5126,
			"count":62,
			"type":"VEC2"
		},
		{
			"bufferView":7,
			"componentType":5126,
			"count":62,
			"type":"VEC2"
		},
		{
			"bufferView":8,
			"componentType":5123,
			"count":150,
			"type":"SCALAR"
		}
	],
	"bufferViews":[
		{
			"buffer":0,
			"byteLength":46200,
			"byteOffset":0,
			"target":34962
		},
		{
			"buffer":0,
			"byteLength":46200,
			"byteOffset":46200,
			"target":34962
		},
		{
			"buffer":0,
			"byteLength":30800,
			"byteOffset":92400,
			"target":34962
		},
		{
			"buffer":0,
			"byteLength":23526,
			"byteOffset":123200,
			"target":34963
		},
		{
			"buffer":0,
			"byteLength":744,
			"byteOffset":146728,
			"target":34962
		},
		{
			"buffer":0,
			"byteLength":744,
			"byteOffset":147472,
			"target":34962
		},
		{
			"buffer":0,
			"byteLength":496,
			"byteOffset":148216,
			"target":34962
		},
		{
			"buffer":0,
			"byteLength":496,
			"byteOffset":148712,
			"target":34962
		},
		{
			"buffer":0,
			"byteLength":300,
			"byteOffset":149208,
			"target":34963
		}
	],
	"samplers":[
		{
			"magFilter":9729,
			"minFilter":9987
		}
	],
	"buffers":[
		{
			"byteLength":149508,
			"uri":"model.bin"
		}
	]
}
