<svg xmlns="http://www.w3.org/2000/svg" viewBox="0 0 32 40" fill="none" x="0px" y="0px">
  <path fill-rule="evenodd" clip-rule="evenodd" d="M19.1079 6.49523C17.1 5.83865 14.9356 5.83485 12.9254 6.48439C10.9151 7.13393 9.16222 8.40343 7.91808 10.1108C6.67393 11.8182 6.00248 13.8757 6.00001 15.9883C5.99754 18.1009 6.66419 20.16 7.90434 21.8703C9.14449 23.5806 10.8944 24.8542 12.9032 25.5084C14.9119 26.1626 17.0762 26.1639 19.0857 25.512C21.0952 24.8601 22.8466 23.5886 24.0888 21.8797C25.3309 20.1709 26 18.1126 26 16C26 15.4477 26.4477 15 27 15C27.5523 15 28 15.4477 28 16C28 18.5351 27.1971 21.0051 25.7066 23.0557C24.216 25.1063 22.1143 26.6321 19.7029 27.4144C17.2915 28.1967 14.6943 28.1952 12.2838 27.4101C9.87331 26.625 7.77339 25.0967 6.28521 23.0443C4.79703 20.992 3.99705 18.5211 4.00001 15.986C4.00297 13.4509 4.80872 10.9818 6.30169 8.93297C7.79467 6.88412 9.89816 5.36072 12.3105 4.58127C14.7228 3.80182 17.32 3.80638 19.7295 4.59427C20.2545 4.76592 20.5409 5.33061 20.3692 5.85555C20.1976 6.38048 19.6329 6.66688 19.1079 6.49523Z" fill="currentColor"/>
  <path d="M16 14C16.5523 14 17 14.4477 17 15L17 21C17 21.5523 16.5523 22 16 22V22C15.4477 22 15 21.5523 15 21L15 15C15 14.4477 15.4477 14 16 14V14Z" fill="currentColor"/><path d="M16 10C16.5523 10 17 10.4477 17 11V11C17 11.5523 16.5523 12 16 12V12C15.4477 12 15 11.5523 15 11V11C15 10.4477 15.4477 10 16 10V10Z" fill="currentColor"/>
</svg>
