<svg xmlns="http://www.w3.org/2000/svg" viewBox="0 0 100 100">
  <path fill="currentColor" d="M100,60.51a45.69,45.69,0,0,0-13.25-32.2,1.4,1.4,0,0,0-.39-.39,45.74,45.74,0,0,0-64.39,0,1.4,1.4,0,0,0-.4.4,45.79,45.79,0,0,0,.1,64.54l0,0,0,0a2.5,2.5,0,0,0,3.54,0l5.3-5.3A2.5,2.5,0,0,0,27,84.08l-3.47,3.47A40.49,40.49,0,0,1,13.41,63h4.91a2.5,2.5,0,1,0,0-5H13.41A40.66,40.66,0,0,1,23.59,33.47L27,36.93a2.5,2.5,0,0,0,3.54-3.54l-3.46-3.46A40.66,40.66,0,0,1,51.66,19.75v4.91a2.5,2.5,0,0,0,5,0V19.75A40.66,40.66,0,0,1,81.2,29.94L77.74,33.4a2.5,2.5,0,0,0,3.54,3.54l3.46-3.46A40.66,40.66,0,0,1,94.92,58H90a2.5,2.5,0,0,0,0,5h4.91A40.48,40.48,0,0,1,84.75,87.56l-3.47-3.47a2.5,2.5,0,0,0-3.54,3.54l5.3,5.3a2.5,2.5,0,0,0,3.54,0h0A45.54,45.54,0,0,0,100,60.51Z"/><path d="M54.16,50.44A10,10,0,0,0,49,51.85L38.33,41.14a2.5,2.5,0,0,0-3.54,3.54L45.5,55.39a10.06,10.06,0,1,0,8.66-5Zm0,15.14a5.07,5.07,0,1,1,5.07-5.07A5.08,5.08,0,0,1,54.16,65.58Z"/>
  <path fill="currentColor" d="M18.81,27.12l.22-.06.25-.08.24-.13.19-.1a2.51,2.51,0,0,0,.69-.69c0-.06.06-.12.1-.18a1.47,1.47,0,0,0,.21-.5c0-.07.05-.14.07-.22a2.51,2.51,0,0,0,0-.49V10.53a2.5,2.5,0,0,0-5,0v8.1L4.27,7.08A2.5,2.5,0,0,0,.73,10.61L12.28,22.17H4.18a2.5,2.5,0,1,0,0,5H18.32A2.51,2.51,0,0,0,18.81,27.12Z"/>
</svg>
