{
	"asset":{
		"generator":"Khronos glTF Blender I/O v3.6.27",
		"version":"2.0"
	},
	"scene":0,
	"scenes":[
		{
			"name":"Scene",
			"nodes":[
				17
			]
		}
	],
	"nodes":[
		{
			"mesh":0,
			"name":"active-display",
			"rotation":[
				0.70710688829422,
				0,
				0,
				0.7071066498756409
			],
			"translation":[
				0,
				5.020468711853027,
				0.11699526011943817
			]
		},
		{
			"mesh":1,
			"name":"Buttons_Buttons_0"
		},
		{
			"children":[
				1
			],
			"name":"Buttons",
			"rotation":[
				-0.70710688829422,
				0,
				0,
				0.7071066498756409
			],
			"scale":[
				100.00000762939453,
				99.99996948242188,
				99.99996948242188
			],
			"translation":[
				0,
				0,
				0.008410915732383728
			]
		},
		{
			"name":"Object_19"
		},
		{
			"children":[
				3
			],
			"name":"Camera.001",
			"rotation":[
				0.6029247641563416,
				0.3694344758987427,
				0.29939332604408264,
				0.6405962705612183
			],
			"translation":[
				-0.3591103255748749,
				-0.544759213924408,
				0.08063246309757233
			]
		},
		{
			"children":[
				4
			],
			"name":"Empty",
			"rotation":[
				-0.70710688829422,
				0,
				0,
				0.7071066498756409
			],
			"scale":[
				100.00000762939453,
				99.99996948242188,
				99.99996948242188
			]
		},
		{
			"mesh":2,
			"name":"moveable-gauge"
		},
		{
			"children":[
				6
			],
			"name":"Gage Needle",
			"rotation":[
				-0.70710688829422,
				0,
				0,
				0.7071066498756409
			],
			"scale":[
				100.00000762939453,
				99.99996948242188,
				99.99996948242188
			],
			"translation":[
				0.004417687654495239,
				8.4431734085083,
				0.06812811642885208
			]
		},
		{
			"mesh":3,
			"name":"Geiger Counter_Geiger_0"
		},
		{
			"children":[
				8
			],
			"name":"Geiger Counter",
			"rotation":[
				-0.70710688829422,
				0,
				0,
				0.7071066498756409
			],
			"scale":[
				100.00000762939453,
				99.99996948242188,
				99.99996948242188
			]
		},
		{
			"mesh":4,
			"name":"Hazard Symbol_Hazard_0"
		},
		{
			"children":[
				10
			],
			"name":"Hazard Symbol",
			"rotation":[
				-0.70710688829422,
				0,
				0,
				0.7071066498756409
			],
			"scale":[
				100.00000762939453,
				99.99996948242188,
				99.99996948242188
			],
			"translation":[
				0,
				0,
				0.05549602583050728
			]
		},
		{
			"mesh":5,
			"name":"Markings_Bad_0"
		},
		{
			"mesh":6,
			"name":"Markings_Good_0"
		},
		{
			"children":[
				12,
				13
			],
			"name":"Markings",
			"rotation":[
				-0.70710688829422,
				0,
				0,
				0.7071066498756409
			],
			"scale":[
				100.00000762939453,
				99.99996948242188,
				99.99996948242188
			],
			"translation":[
				0,
				0,
				0.003428767202422023
			]
		},
		{
			"mesh":7,
			"name":"Screen_Screen_0"
		},
		{
			"children":[
				15
			],
			"name":"Screen",
			"rotation":[
				-0.70710688829422,
				0,
				0,
				0.7071066498756409
			],
			"scale":[
				100.00000762939453,
				99.99996948242188,
				99.99996948242188
			],
			"translation":[
				0,
				0,
				0.003029406303539872
			]
		},
		{
			"children":[
				0,
				2,
				5,
				7,
				9,
				11,
				14,
				16
			],
			"name":"RootNode",
			"scale":[
				0.15000000596046448,
				0.15000000596046448,
				0.15000000596046448
			]
		}
	],
	"materials":[
		{
			"doubleSided":true,
			"name":"Buttons.001",
			"pbrMetallicRoughness":{
				"baseColorTexture":{
					"index":0
				},
				"metallicFactor":0,
				"metallicRoughnessTexture":{
					"index":1
				}
			}
		},
		{
			"doubleSided":true,
			"name":"Gage.001",
			"pbrMetallicRoughness":{
				"baseColorFactor":[
					0.17308199405670166,
					0.17308199405670166,
					0.17308199405670166,
					1
				],
				"metallicFactor":0
			}
		},
		{
			"doubleSided":true,
			"name":"Geiger.001",
			"normalTexture":{
				"index":2
			},
			"pbrMetallicRoughness":{
				"baseColorTexture":{
					"index":3
				},
				"metallicFactor":0,
				"metallicRoughnessTexture":{
					"index":4
				}
			}
		},
		{
			"doubleSided":true,
			"name":"Hazard.001",
			"pbrMetallicRoughness":{
				"baseColorFactor":[
					0.006222030147910118,
					0.006222030147910118,
					0.006222030147910118,
					1
				],
				"metallicFactor":0,
				"roughnessFactor":0.9986087083816528
			}
		},
		{
			"doubleSided":true,
			"name":"material.001",
			"pbrMetallicRoughness":{
				"baseColorFactor":[
					0.8001419901847839,
					0,
					0.002772589912638068,
					1
				],
				"metallicFactor":0,
				"roughnessFactor":0.9619174599647522
			}
		},
		{
			"doubleSided":true,
			"name":"Good.001",
			"pbrMetallicRoughness":{
				"baseColorFactor":[
					0.0013093899469822645,
					0.8000230193138123,
					0,
					1
				],
				"metallicFactor":0,
				"roughnessFactor":0.871995210647583
			}
		},
		{
			"doubleSided":true,
			"name":"Screen.001",
			"normalTexture":{
				"index":5
			},
			"pbrMetallicRoughness":{
				"baseColorTexture":{
					"index":6
				},
				"metallicFactor":0.06552401185035706,
				"roughnessFactor":0.3398105502128601
			}
		}
	],
	"meshes":[
		{
			"name":"Plane",
			"primitives":[
				{
					"attributes":{
						"POSITION":0,
						"NORMAL":1,
						"TEXCOORD_0":2
					},
					"indices":3
				}
			]
		},
		{
			"name":"Buttons_Buttons_0.001",
			"primitives":[
				{
					"attributes":{
						"POSITION":4,
						"NORMAL":5,
						"TEXCOORD_0":6
					},
					"indices":7,
					"material":0
				}
			]
		},
		{
			"name":"Gage Needle_Gage_0.001",
			"primitives":[
				{
					"attributes":{
						"POSITION":8,
						"NORMAL":9,
						"TEXCOORD_0":10
					},
					"indices":11,
					"material":1
				}
			]
		},
		{
			"name":"Geiger Counter_Geiger_0.001",
			"primitives":[
				{
					"attributes":{
						"POSITION":12,
						"NORMAL":13,
						"TEXCOORD_0":14
					},
					"indices":15,
					"material":2
				}
			]
		},
		{
			"name":"Hazard Symbol_Hazard_0.001",
			"primitives":[
				{
					"attributes":{
						"POSITION":16,
						"NORMAL":17,
						"TEXCOORD_0":18
					},
					"indices":19,
					"material":3
				}
			]
		},
		{
			"name":"Markings_Bad_0.001",
			"primitives":[
				{
					"attributes":{
						"POSITION":20,
						"NORMAL":21,
						"TEXCOORD_0":22
					},
					"indices":23,
					"material":4
				}
			]
		},
		{
			"name":"Markings_Good_0.001",
			"primitives":[
				{
					"attributes":{
						"POSITION":24,
						"NORMAL":25,
						"TEXCOORD_0":26
					},
					"indices":27,
					"material":5
				}
			]
		},
		{
			"name":"Screen_Screen_0.001",
			"primitives":[
				{
					"attributes":{
						"POSITION":28,
						"NORMAL":29,
						"TEXCOORD_0":30
					},
					"indices":31,
					"material":6
				}
			]
		}
	],
	"textures":[
		{
			"sampler":0,
			"source":0
		},
		{
			"sampler":0,
			"source":1
		},
		{
			"sampler":0,
			"source":2
		},
		{
			"sampler":0,
			"source":3
		},
		{
			"sampler":0,
			"source":4
		},
		{
			"sampler":0,
			"source":2
		},
		{
			"sampler":0,
			"source":5
		}
	],
	"images":[
		{
			"mimeType":"image/png",
			"name":"Buttons_baseColor",
			"uri":"textures/Buttons_baseColor.png"
		},
		{
			"mimeType":"image/png",
			"name":"Buttons_metallicRoughness",
			"uri":"textures/Buttons_metallicRoughness.png"
		},
		{
			"mimeType":"image/png",
			"name":"Geiger_normal",
			"uri":"textures/Geiger_normal.png"
		},
		{
			"mimeType":"image/png",
			"name":"Geiger_baseColor",
			"uri":"textures/Geiger_baseColor.png"
		},
		{
			"mimeType":"image/png",
			"name":"Geiger_metallicRoughness",
			"uri":"textures/Geiger_metallicRoughness.png"
		},
		{
			"mimeType":"image/png",
			"name":"Screen_baseColor",
			"uri":"textures/Screen_baseColor.png"
		}
	],
	"accessors":[
		{
			"bufferView":0,
			"componentType":5126,
			"count":4,
			"max":[
				3.5774755477905273,
				2.873319360219284e-08,
				2.438544511795044
			],
			"min":[
				-3.5774755477905273,
				-6.573322330893916e-09,
				-1.931585669517517
			],
			"type":"VEC3"
		},
		{
			"bufferView":1,
			"componentType":5126,
			"count":4,
			"type":"VEC3"
		},
		{
			"bufferView":2,
			"componentType":5126,
			"count":4,
			"type":"VEC2"
		},
		{
			"bufferView":3,
			"componentType":5123,
			"count":6,
			"type":"SCALAR"
		},
		{
			"bufferView":4,
			"componentType":5126,
			"count":324,
			"max":[
				0.022281888872385025,
				-0.0005726998206228018,
				-0.009954716078937054
			],
			"min":[
				-0.022706901654601097,
				-0.001740934792906046,
				-0.055604562163352966
			],
			"type":"VEC3"
		},
		{
			"bufferView":5,
			"componentType":5126,
			"count":324,
			"type":"VEC3"
		},
		{
			"bufferView":6,
			"componentType":5126,
			"count":324,
			"type":"VEC2"
		},
		{
			"bufferView":7,
			"componentType":5123,
			"count":1134,
			"type":"SCALAR"
		},
		{
			"bufferView":8,
			"componentType":5126,
			"count":238,
			"max":[
				0.003979838918894529,
				0.0018171857809647918,
				0.02575136534869671
			],
			"min":[
				-0.003979837987571955,
				-0.00181718694511801,
				-0.0036360113881528378
			],
			"type":"VEC3"
		},
		{
			"bufferView":9,
			"componentType":5126,
			"count":238,
			"type":"VEC3"
		},
		{
			"bufferView":10,
			"componentType":5126,
			"count":238,
			"type":"VEC2"
		},
		{
			"bufferView":11,
			"componentType":5123,
			"count":852,
			"type":"SCALAR"
		},
		{
			"bufferView":12,
			"componentType":5126,
			"count":535,
			"max":[
				0.04401831328868866,
				0.022996993735432625,
				0.11296205967664719
			],
			"min":[
				-0.04392976313829422,
				-0.002885169582441449,
				-0.1074078306555748
			],
			"type":"VEC3"
		},
		{
			"bufferView":13,
			"componentType":5126,
			"count":535,
			"type":"VEC3"
		},
		{
			"bufferView":14,
			"componentType":5126,
			"count":535,
			"type":"VEC2"
		},
		{
			"bufferView":15,
			"componentType":5123,
			"count":2304,
			"type":"SCALAR"
		},
		{
			"bufferView":16,
			"componentType":5126,
			"count":624,
			"max":[
				0.013997665606439114,
				-0.0020491506438702345,
				-0.07686328142881393
			],
			"min":[
				-0.013889086432754993,
				-0.003987093456089497,
				-0.1012391671538353
			],
			"type":"VEC3"
		},
		{
			"bufferView":17,
			"componentType":5126,
			"count":624,
			"type":"VEC3"
		},
		{
			"bufferView":18,
			"componentType":5126,
			"count":624,
			"type":"VEC2"
		},
		{
			"bufferView":19,
			"componentType":5123,
			"count":1302,
			"type":"SCALAR"
		},
		{
			"bufferView":20,
			"componentType":5126,
			"count":7,
			"max":[
				0.01752922683954239,
				0.0009166335221379995,
				0.10925506800413132
			],
			"min":[
				0.00016601267270743847,
				0.0009166324161924422,
				0.07960391789674759
			],
			"type":"VEC3"
		},
		{
			"bufferView":21,
			"componentType":5126,
			"count":7,
			"type":"VEC3"
		},
		{
			"bufferView":22,
			"componentType":5126,
			"count":7,
			"type":"VEC2"
		},
		{
			"bufferView":23,
			"componentType":5123,
			"count":15,
			"type":"SCALAR"
		},
		{
			"bufferView":24,
			"componentType":5126,
			"count":7,
			"max":[
				0.0002798974746838212,
				0.0009166334639303386,
				0.1092538833618164
			],
			"min":[
				-0.017440756782889366,
				0.0009166324161924422,
				0.07984677702188492
			],
			"type":"VEC3"
		},
		{
			"bufferView":25,
			"componentType":5126,
			"count":7,
			"type":"VEC3"
		},
		{
			"bufferView":26,
			"componentType":5126,
			"count":7,
			"type":"VEC2"
		},
		{
			"bufferView":27,
			"componentType":5123,
			"count":15,
			"type":"SCALAR"
		},
		{
			"bufferView":28,
			"componentType":5126,
			"count":4,
			"max":[
				0.03213052451610565,
				-0.0010391105897724628,
				0.06770623475313187
			],
			"min":[
				-0.03204206004738808,
				-0.0010391105897724628,
				0.02835198864340782
			],
			"type":"VEC3"
		},
		{
			"bufferView":29,
			"componentType":5126,
			"count":4,
			"type":"VEC3"
		},
		{
			"bufferView":30,
			"componentType":5126,
			"count":4,
			"type":"VEC2"
		},
		{
			"bufferView":31,
			"componentType":5123,
			"count":6,
			"type":"SCALAR"
		}
	],
	"bufferViews":[
		{
			"buffer":0,
			"byteLength":48,
			"byteOffset":0,
			"target":34962
		},
		{
			"buffer":0,
			"byteLength":48,
			"byteOffset":48,
			"target":34962
		},
		{
			"buffer":0,
			"byteLength":32,
			"byteOffset":96,
			"target":34962
		},
		{
			"buffer":0,
			"byteLength":12,
			"byteOffset":128,
			"target":34963
		},
		{
			"buffer":0,
			"byteLength":3888,
			"byteOffset":140,
			"target":34962
		},
		{
			"buffer":0,
			"byteLength":3888,
			"byteOffset":4028,
			"target":34962
		},
		{
			"buffer":0,
			"byteLength":2592,
			"byteOffset":7916,
			"target":34962
		},
		{
			"buffer":0,
			"byteLength":2268,
			"byteOffset":10508,
			"target":34963
		},
		{
			"buffer":0,
			"byteLength":2856,
			"byteOffset":12776,
			"target":34962
		},
		{
			"buffer":0,
			"byteLength":2856,
			"byteOffset":15632,
			"target":34962
		},
		{
			"buffer":0,
			"byteLength":1904,
			"byteOffset":18488,
			"target":34962
		},
		{
			"buffer":0,
			"byteLength":1704,
			"byteOffset":20392,
			"target":34963
		},
		{
			"buffer":0,
			"byteLength":6420,
			"byteOffset":22096,
			"target":34962
		},
		{
			"buffer":0,
			"byteLength":6420,
			"byteOffset":28516,
			"target":34962
		},
		{
			"buffer":0,
			"byteLength":4280,
			"byteOffset":34936,
			"target":34962
		},
		{
			"buffer":0,
			"byteLength":4608,
			"byteOffset":39216,
			"target":34963
		},
		{
			"buffer":0,
			"byteLength":7488,
			"byteOffset":43824,
			"target":34962
		},
		{
			"buffer":0,
			"byteLength":7488,
			"byteOffset":51312,
			"target":34962
		},
		{
			"buffer":0,
			"byteLength":4992,
			"byteOffset":58800,
			"target":34962
		},
		{
			"buffer":0,
			"byteLength":2604,
			"byteOffset":63792,
			"target":34963
		},
		{
			"buffer":0,
			"byteLength":84,
			"byteOffset":66396,
			"target":34962
		},
		{
			"buffer":0,
			"byteLength":84,
			"byteOffset":66480,
			"target":34962
		},
		{
			"buffer":0,
			"byteLength":56,
			"byteOffset":66564,
			"target":34962
		},
		{
			"buffer":0,
			"byteLength":30,
			"byteOffset":66620,
			"target":34963
		},
		{
			"buffer":0,
			"byteLength":84,
			"byteOffset":66652,
			"target":34962
		},
		{
			"buffer":0,
			"byteLength":84,
			"byteOffset":66736,
			"target":34962
		},
		{
			"buffer":0,
			"byteLength":56,
			"byteOffset":66820,
			"target":34962
		},
		{
			"buffer":0,
			"byteLength":30,
			"byteOffset":66876,
			"target":34963
		},
		{
			"buffer":0,
			"byteLength":48,
			"byteOffset":66908,
			"target":34962
		},
		{
			"buffer":0,
			"byteLength":48,
			"byteOffset":66956,
			"target":34962
		},
		{
			"buffer":0,
			"byteLength":32,
			"byteOffset":67004,
			"target":34962
		},
		{
			"buffer":0,
			"byteLength":12,
			"byteOffset":67036,
			"target":34963
		}
	],
	"samplers":[
		{
			"magFilter":9729,
			"minFilter":9987
		}
	],
	"buffers":[
		{
			"byteLength":67048,
			"uri":"model.bin"
		}
	]
}
