{
	"asset":{
		"generator":"Khronos glTF Blender I/O v3.6.27",
		"version":"2.0"
	},
	"extensionsUsed":[
		"KHR_materials_specular",
		"KHR_materials_ior",
		"KHR_materials_emissive_strength"
	],
	"scene":0,
	"scenes":[
		{
			"name":"Scene",
			"nodes":[
				5
			]
		}
	],
	"nodes":[
		{
			"mesh":0,
			"name":"Circle",
			"rotation":[
				0,
				0,
				-0.7071068286895752,
				0.7071068286895752
			],
			"scale":[
				0.243820920586586,
				0.2625158131122589,
				0.243820920586586
			],
			"translation":[
				0.5032711625099182,
				0.2477777600288391,
				-1.084304928779602
			]
		},
		{
			"mesh":1,
			"name":"Circle.001",
			"rotation":[
				0,
				0,
				-0.7071068286895752,
				0.7071068286895752
			],
			"scale":[
				0.243820920586586,
				0.2625158131122589,
				0.243820920586586
			],
			"translation":[
				0.5032711625099182,
				0.2477777600288391,
				1.0338332653045654
			]
		},
		{
			"mesh":2,
			"name":"Circle.002",
			"rotation":[
				0.7071068286895752,
				-0.7071068286895752,
				0,
				1.1520233300643667e-07
			],
			"scale":[
				0.243820920586586,
				0.2625158131122589,
				0.243820920586586
			],
			"translation":[
				-0.4936492443084717,
				0.2477777600288391,
				1.0338332653045654
			]
		},
		{
			"mesh":3,
			"name":"Circle.003",
			"rotation":[
				0.7071068286895752,
				-0.7071068286895752,
				0,
				1.1520233300643667e-07
			],
			"scale":[
				0.243820920586586,
				0.2625158131122589,
				0.243820920586586
			],
			"translation":[
				-0.4936494827270508,
				0.2477777600288391,
				-1.0843051671981812
			]
		},
		{
			"mesh":4,
			"name":"Cube.001",
			"scale":[
				0.45208024978637695,
				0.45208024978637695,
				0.45208024978637695
			],
			"translation":[
				0.006437554955482483,
				0.6513466238975525,
				-0.02773904800415039
			]
		},
		{
			"children":[
				0,
				1,
				2,
				3,
				4
			],
			"name":"Cybertruck",
			"scale":[
				2.5028281211853027,
				2.5028281211853027,
				2.5028281211853027
			]
		}
	],
	"materials":[
		{
			"doubleSided":true,
			"extensions":{
				"KHR_materials_specular":{
					"specularColorFactor":[
						0.0023713577270748406,
						0.0023713577270748406,
						0.0023713577270748406
					]
				},
				"KHR_materials_ior":{
					"ior":1.4500000476837158
				}
			},
			"name":"Material.006",
			"pbrMetallicRoughness":{
				"baseColorFactor":[
					0.007000000216066837,
					0.007000000216066837,
					0.007000000216066837,
					1
				],
				"metallicFactor":0,
				"roughnessFactor":0.9900000095367432
			}
		},
		{
			"doubleSided":true,
			"name":"Material.007",
			"pbrMetallicRoughness":{
				"baseColorFactor":[
					0.1192760244011879,
					0.1192760244011879,
					0.1192760244011879,
					1
				],
				"roughnessFactor":0.6025640964508057
			}
		},
		{
			"doubleSided":true,
			"name":"Material",
			"pbrMetallicRoughness":{
				"baseColorTexture":{
					"index":0
				},
				"roughnessFactor":0.7120401263237
			}
		},
		{
			"alphaMode":"BLEND",
			"doubleSided":true,
			"name":"Material.001",
			"pbrMetallicRoughness":{
				"baseColorFactor":[
					0,
					0,
					0,
					1
				],
				"metallicFactor":0.5,
				"roughnessFactor":0.1538461595773697
			}
		},
		{
			"doubleSided":true,
			"name":"Material.002",
			"pbrMetallicRoughness":{
				"baseColorFactor":[
					0.03521803393959999,
					0.03521803393959999,
					0.03521803393959999,
					1
				],
				"metallicFactor":0.6794871687889099,
				"roughnessFactor":0.19230769574642181
			}
		},
		{
			"doubleSided":true,
			"name":"Material.003",
			"pbrMetallicRoughness":{
				"baseColorFactor":[
					0,
					0,
					0,
					1
				],
				"metallicFactor":0
			}
		},
		{
			"doubleSided":true,
			"emissiveFactor":[
				1,
				1,
				1
			],
			"extensions":{
				"KHR_materials_emissive_strength":{
					"emissiveStrength":5
				}
			},
			"name":"Material.004",
			"pbrMetallicRoughness":{
				"baseColorFactor":[
					0,
					0,
					0,
					1
				]
			}
		},
		{
			"doubleSided":true,
			"emissiveFactor":[
				1,
				0,
				0.0031663684640079737
			],
			"extensions":{
				"KHR_materials_emissive_strength":{
					"emissiveStrength":5
				}
			},
			"name":"Material.005",
			"pbrMetallicRoughness":{
				"baseColorFactor":[
					0,
					0,
					0,
					1
				]
			}
		}
	],
	"meshes":[
		{
			"name":"Circle",
			"primitives":[
				{
					"attributes":{
						"POSITION":0,
						"NORMAL":1,
						"TEXCOORD_0":2
					},
					"indices":3,
					"material":0
				},
				{
					"attributes":{
						"POSITION":4,
						"NORMAL":5,
						"TEXCOORD_0":6
					},
					"indices":7,
					"material":1
				}
			]
		},
		{
			"name":"Circle.017",
			"primitives":[
				{
					"attributes":{
						"POSITION":8,
						"NORMAL":9,
						"TEXCOORD_0":10
					},
					"indices":3,
					"material":0
				},
				{
					"attributes":{
						"POSITION":11,
						"NORMAL":12,
						"TEXCOORD_0":13
					},
					"indices":7,
					"material":1
				}
			]
		},
		{
			"name":"Circle.018",
			"primitives":[
				{
					"attributes":{
						"POSITION":14,
						"NORMAL":15,
						"TEXCOORD_0":16
					},
					"indices":3,
					"material":0
				},
				{
					"attributes":{
						"POSITION":17,
						"NORMAL":18,
						"TEXCOORD_0":19
					},
					"indices":7,
					"material":1
				}
			]
		},
		{
			"name":"Circle.019",
			"primitives":[
				{
					"attributes":{
						"POSITION":20,
						"NORMAL":21,
						"TEXCOORD_0":22
					},
					"indices":3,
					"material":0
				},
				{
					"attributes":{
						"POSITION":23,
						"NORMAL":24,
						"TEXCOORD_0":25
					},
					"indices":7,
					"material":1
				}
			]
		},
		{
			"name":"Cube.001",
			"primitives":[
				{
					"attributes":{
						"POSITION":26,
						"NORMAL":27,
						"TEXCOORD_0":28
					},
					"indices":29,
					"material":2
				},
				{
					"attributes":{
						"POSITION":30,
						"NORMAL":31,
						"TEXCOORD_0":32
					},
					"indices":33,
					"material":3
				},
				{
					"attributes":{
						"POSITION":34,
						"NORMAL":35,
						"TEXCOORD_0":36
					},
					"indices":37,
					"material":4
				},
				{
					"attributes":{
						"POSITION":38,
						"NORMAL":39,
						"TEXCOORD_0":40
					},
					"indices":41,
					"material":5
				},
				{
					"attributes":{
						"POSITION":42,
						"NORMAL":43,
						"TEXCOORD_0":44
					},
					"indices":45,
					"material":6
				},
				{
					"attributes":{
						"POSITION":46,
						"NORMAL":47,
						"TEXCOORD_0":48
					},
					"indices":49,
					"material":7
				}
			]
		}
	],
	"textures":[
		{
			"sampler":0,
			"source":0
		}
	],
	"images":[
		{
			"mimeType":"image/png",
			"name":"diffuse",
			"uri":"textures/diffuse.png"
		}
	],
	"accessors":[
		{
			"bufferView":0,
			"componentType":5126,
			"count":1491,
			"max":[
				1.1321990489959717,
				0.2683179974555969,
				1.1296950578689575
			],
			"min":[
				-1.1314688920974731,
				-0.4300464987754822,
				-1.129482626914978
			],
			"type":"VEC3"
		},
		{
			"bufferView":1,
			"componentType":5126,
			"count":1491,
			"type":"VEC3"
		},
		{
			"bufferView":2,
			"componentType":5126,
			"count":1491,
			"type":"VEC2"
		},
		{
			"bufferView":3,
			"componentType":5123,
			"count":4362,
			"type":"SCALAR"
		},
		{
			"bufferView":4,
			"componentType":5126,
			"count":392,
			"max":[
				0.7751495838165283,
				0.2934749126434326,
				0.7672204971313477
			],
			"min":[
				-0.7500932812690735,
				-0.19553983211517334,
				-0.7773246765136719
			],
			"type":"VEC3"
		},
		{
			"bufferView":5,
			"componentType":5126,
			"count":392,
			"type":"VEC3"
		},
		{
			"bufferView":6,
			"componentType":5126,
			"count":392,
			"type":"VEC2"
		},
		{
			"bufferView":7,
			"componentType":5123,
			"count":960,
			"type":"SCALAR"
		},
		{
			"bufferView":8,
			"componentType":5126,
			"count":1491,
			"max":[
				1.1321990489959717,
				0.2683179974555969,
				1.1296950578689575
			],
			"min":[
				-1.1314688920974731,
				-0.4300464987754822,
				-1.129482626914978
			],
			"type":"VEC3"
		},
		{
			"bufferView":9,
			"componentType":5126,
			"count":1491,
			"type":"VEC3"
		},
		{
			"bufferView":10,
			"componentType":5126,
			"count":1491,
			"type":"VEC2"
		},
		{
			"bufferView":11,
			"componentType":5126,
			"count":392,
			"max":[
				0.7751495838165283,
				0.2934749126434326,
				0.7672204971313477
			],
			"min":[
				-0.7500932812690735,
				-0.19553983211517334,
				-0.7773246765136719
			],
			"type":"VEC3"
		},
		{
			"bufferView":12,
			"componentType":5126,
			"count":392,
			"type":"VEC3"
		},
		{
			"bufferView":13,
			"componentType":5126,
			"count":392,
			"type":"VEC2"
		},
		{
			"bufferView":14,
			"componentType":5126,
			"count":1491,
			"max":[
				1.1321990489959717,
				0.2683179974555969,
				1.1296950578689575
			],
			"min":[
				-1.1314688920974731,
				-0.4300464987754822,
				-1.129482626914978
			],
			"type":"VEC3"
		},
		{
			"bufferView":15,
			"componentType":5126,
			"count":1491,
			"type":"VEC3"
		},
		{
			"bufferView":16,
			"componentType":5126,
			"count":1491,
			"type":"VEC2"
		},
		{
			"bufferView":17,
			"componentType":5126,
			"count":392,
			"max":[
				0.7751495838165283,
				0.2934749126434326,
				0.7672204971313477
			],
			"min":[
				-0.7500932812690735,
				-0.19553983211517334,
				-0.7773246765136719
			],
			"type":"VEC3"
		},
		{
			"bufferView":18,
			"componentType":5126,
			"count":392,
			"type":"VEC3"
		},
		{
			"bufferView":19,
			"componentType":5126,
			"count":392,
			"type":"VEC2"
		},
		{
			"bufferView":20,
			"componentType":5126,
			"count":1491,
			"max":[
				1.1321990489959717,
				0.2683179974555969,
				1.1296950578689575
			],
			"min":[
				-1.1314688920974731,
				-0.4300464987754822,
				-1.129482626914978
			],
			"type":"VEC3"
		},
		{
			"bufferView":21,
			"componentType":5126,
			"count":1491,
			"type":"VEC3"
		},
		{
			"bufferView":22,
			"componentType":5126,
			"count":1491,
			"type":"VEC2"
		},
		{
			"bufferView":23,
			"componentType":5126,
			"count":392,
			"max":[
				0.7751495838165283,
				0.2934749126434326,
				0.7672204971313477
			],
			"min":[
				-0.7500932812690735,
				-0.19553983211517334,
				-0.7773246765136719
			],
			"type":"VEC3"
		},
		{
			"bufferView":24,
			"componentType":5126,
			"count":392,
			"type":"VEC3"
		},
		{
			"bufferView":25,
			"componentType":5126,
			"count":392,
			"type":"VEC2"
		},
		{
			"bufferView":26,
			"componentType":5126,
			"count":448,
			"max":[
				1.201926589012146,
				0.901656985282898,
				3.487370491027832
			],
			"min":[
				-1.201926589012146,
				-0.8588274717330933,
				-3.7592015266418457
			],
			"type":"VEC3"
		},
		{
			"bufferView":27,
			"componentType":5126,
			"count":448,
			"type":"VEC3"
		},
		{
			"bufferView":28,
			"componentType":5126,
			"count":448,
			"type":"VEC2"
		},
		{
			"bufferView":29,
			"componentType":5123,
			"count":753,
			"type":"SCALAR"
		},
		{
			"bufferView":30,
			"componentType":5126,
			"count":50,
			"max":[
				1.050010323524475,
				0.8878464698791504,
				2.4037585258483887
			],
			"min":[
				-1.050010323524475,
				0.1412312388420105,
				-1.1323060989379883
			],
			"type":"VEC3"
		},
		{
			"bufferView":31,
			"componentType":5126,
			"count":50,
			"type":"VEC3"
		},
		{
			"bufferView":32,
			"componentType":5126,
			"count":50,
			"type":"VEC2"
		},
		{
			"bufferView":33,
			"componentType":5123,
			"count":108,
			"type":"SCALAR"
		},
		{
			"bufferView":34,
			"componentType":5126,
			"count":160,
			"max":[
				1.1405131816864014,
				0.901656985282898,
				2.567135810852051
			],
			"min":[
				-1.1405131816864014,
				0.1412312388420105,
				-3.7577481269836426
			],
			"type":"VEC3"
		},
		{
			"bufferView":35,
			"componentType":5126,
			"count":160,
			"type":"VEC3"
		},
		{
			"bufferView":36,
			"componentType":5126,
			"count":160,
			"type":"VEC2"
		},
		{
			"bufferView":37,
			"componentType":5123,
			"count":384,
			"type":"SCALAR"
		},
		{
			"bufferView":38,
			"componentType":5126,
			"count":847,
			"max":[
				1.2545135021209717,
				0.6654261946678162,
				3.4639170169830322
			],
			"min":[
				-1.2545135021209717,
				-1.029752254486084,
				-3.7021946907043457
			],
			"type":"VEC3"
		},
		{
			"bufferView":39,
			"componentType":5126,
			"count":847,
			"type":"VEC3"
		},
		{
			"bufferView":40,
			"componentType":5126,
			"count":847,
			"type":"VEC2"
		},
		{
			"bufferView":41,
			"componentType":5123,
			"count":1407,
			"type":"SCALAR"
		},
		{
			"bufferView":42,
			"componentType":5126,
			"count":30,
			"max":[
				1.1234285831451416,
				0.8900132775306702,
				3.4683678150177
			],
			"min":[
				-1.1234285831451416,
				-0.7809032797813416,
				0.3649235963821411
			],
			"type":"VEC3"
		},
		{
			"bufferView":43,
			"componentType":5126,
			"count":30,
			"type":"VEC3"
		},
		{
			"bufferView":44,
			"componentType":5126,
			"count":30,
			"type":"VEC2"
		},
		{
			"bufferView":45,
			"componentType":5123,
			"count":54,
			"type":"SCALAR"
		},
		{
			"bufferView":46,
			"componentType":5126,
			"count":14,
			"max":[
				1.1115219593048096,
				0.2908676862716675,
				-3.50253963470459
			],
			"min":[
				-1.1115219593048096,
				-0.5623694658279419,
				-3.7340290546417236
			],
			"type":"VEC3"
		},
		{
			"bufferView":47,
			"componentType":5126,
			"count":14,
			"type":"VEC3"
		},
		{
			"bufferView":48,
			"componentType":5126,
			"count":14,
			"type":"VEC2"
		},
		{
			"bufferView":49,
			"componentType":5123,
			"count":24,
			"type":"SCALAR"
		}
	],
	"bufferViews":[
		{
			"buffer":0,
			"byteLength":17892,
			"byteOffset":0,
			"target":34962
		},
		{
			"buffer":0,
			"byteLength":17892,
			"byteOffset":17892,
			"target":34962
		},
		{
			"buffer":0,
			"byteLength":11928,
			"byteOffset":35784,
			"target":34962
		},
		{
			"buffer":0,
			"byteLength":8724,
			"byteOffset":47712,
			"target":34963
		},
		{
			"buffer":0,
			"byteLength":4704,
			"byteOffset":56436,
			"target":34962
		},
		{
			"buffer":0,
			"byteLength":4704,
			"byteOffset":61140,
			"target":34962
		},
		{
			"buffer":0,
			"byteLength":3136,
			"byteOffset":65844,
			"target":34962
		},
		{
			"buffer":0,
			"byteLength":1920,
			"byteOffset":68980,
			"target":34963
		},
		{
			"buffer":0,
			"byteLength":17892,
			"byteOffset":70900,
			"target":34962
		},
		{
			"buffer":0,
			"byteLength":17892,
			"byteOffset":88792,
			"target":34962
		},
		{
			"buffer":0,
			"byteLength":11928,
			"byteOffset":106684,
			"target":34962
		},
		{
			"buffer":0,
			"byteLength":4704,
			"byteOffset":118612,
			"target":34962
		},
		{
			"buffer":0,
			"byteLength":4704,
			"byteOffset":123316,
			"target":34962
		},
		{
			"buffer":0,
			"byteLength":3136,
			"byteOffset":128020,
			"target":34962
		},
		{
			"buffer":0,
			"byteLength":17892,
			"byteOffset":131156,
			"target":34962
		},
		{
			"buffer":0,
			"byteLength":17892,
			"byteOffset":149048,
			"target":34962
		},
		{
			"buffer":0,
			"byteLength":11928,
			"byteOffset":166940,
			"target":34962
		},
		{
			"buffer":0,
			"byteLength":4704,
			"byteOffset":178868,
			"target":34962
		},
		{
			"buffer":0,
			"byteLength":4704,
			"byteOffset":183572,
			"target":34962
		},
		{
			"buffer":0,
			"byteLength":3136,
			"byteOffset":188276,
			"target":34962
		},
		{
			"buffer":0,
			"byteLength":17892,
			"byteOffset":191412,
			"target":34962
		},
		{
			"buffer":0,
			"byteLength":17892,
			"byteOffset":209304,
			"target":34962
		},
		{
			"buffer":0,
			"byteLength":11928,
			"byteOffset":227196,
			"target":34962
		},
		{
			"buffer":0,
			"byteLength":4704,
			"byteOffset":239124,
			"target":34962
		},
		{
			"buffer":0,
			"byteLength":4704,
			"byteOffset":243828,
			"target":34962
		},
		{
			"buffer":0,
			"byteLength":3136,
			"byteOffset":248532,
			"target":34962
		},
		{
			"buffer":0,
			"byteLength":5376,
			"byteOffset":251668,
			"target":34962
		},
		{
			"buffer":0,
			"byteLength":5376,
			"byteOffset":257044,
			"target":34962
		},
		{
			"buffer":0,
			"byteLength":3584,
			"byteOffset":262420,
			"target":34962
		},
		{
			"buffer":0,
			"byteLength":1506,
			"byteOffset":266004,
			"target":34963
		},
		{
			"buffer":0,
			"byteLength":600,
			"byteOffset":267512,
			"target":34962
		},
		{
			"buffer":0,
			"byteLength":600,
			"byteOffset":268112,
			"target":34962
		},
		{
			"buffer":0,
			"byteLength":400,
			"byteOffset":268712,
			"target":34962
		},
		{
			"buffer":0,
			"byteLength":216,
			"byteOffset":269112,
			"target":34963
		},
		{
			"buffer":0,
			"byteLength":1920,
			"byteOffset":269328,
			"target":34962
		},
		{
			"buffer":0,
			"byteLength":1920,
			"byteOffset":271248,
			"target":34962
		},
		{
			"buffer":0,
			"byteLength":1280,
			"byteOffset":273168,
			"target":34962
		},
		{
			"buffer":0,
			"byteLength":768,
			"byteOffset":274448,
			"target":34963
		},
		{
			"buffer":0,
			"byteLength":10164,
			"byteOffset":275216,
			"target":34962
		},
		{
			"buffer":0,
			"byteLength":10164,
			"byteOffset":285380,
			"target":34962
		},
		{
			"buffer":0,
			"byteLength":6776,
			"byteOffset":295544,
			"target":34962
		},
		{
			"buffer":0,
			"byteLength":2814,
			"byteOffset":302320,
			"target":34963
		},
		{
			"buffer":0,
			"byteLength":360,
			"byteOffset":305136,
			"target":34962
		},
		{
			"buffer":0,
			"byteLength":360,
			"byteOffset":305496,
			"target":34962
		},
		{
			"buffer":0,
			"byteLength":240,
			"byteOffset":305856,
			"target":34962
		},
		{
			"buffer":0,
			"byteLength":108,
			"byteOffset":306096,
			"target":34963
		},
		{
			"buffer":0,
			"byteLength":168,
			"byteOffset":306204,
			"target":34962
		},
		{
			"buffer":0,
			"byteLength":168,
			"byteOffset":306372,
			"target":34962
		},
		{
			"buffer":0,
			"byteLength":112,
			"byteOffset":306540,
			"target":34962
		},
		{
			"buffer":0,
			"byteLength":48,
			"byteOffset":306652,
			"target":34963
		}
	],
	"samplers":[
		{
			"magFilter":9729,
			"minFilter":9987
		}
	],
	"buffers":[
		{
			"byteLength":306700,
			"uri":"model.bin"
		}
	]
}
