{
	"asset":{
		"generator":"Khronos glTF Blender I/O v3.6.27",
		"version":"2.0"
	},
	"scene":0,
	"scenes":[
		{
			"name":"Scene",
			"nodes":[
				0
			]
		}
	],
	"nodes":[
		{
			"mesh":0,
			"name":"Object_50"
		}
	],
	"materials":[
		{
			"doubleSided":true,
			"name":"material_0",
			"occlusionTexture":{
				"index":0
			},
			"pbrMetallicRoughness":{}
		}
	],
	"meshes":[
		{
			"name":"Object_0",
			"primitives":[
				{
					"attributes":{
						"POSITION":0,
						"NORMAL":1,
						"TEXCOORD_0":2,
						"TEXCOORD_1":3,
						"TEXCOORD_2":4,
						"TEXCOORD_3":5,
						"TEXCOORD_4":6
					},
					"indices":7,
					"material":0
				}
			]
		}
	],
	"textures":[
		{
			"sampler":0,
			"source":0
		}
	],
	"images":[
		{
			"mimeType":"image/png",
			"name":"material_0_occlusion",
			"uri":"textures/material_0_occlusion.png"
		}
	],
	"accessors":[
		{
			"bufferView":0,
			"componentType":5126,
			"count":20784,
			"max":[
				2.1692686080932617,
				1.2074942588806152,
				1.7583897113800049
			],
			"min":[
				-2.9160072803497314,
				-0.00921177864074707,
				-3.068981647491455
			],
			"type":"VEC3"
		},
		{
			"bufferView":1,
			"componentType":5126,
			"count":20784,
			"type":"VEC3"
		},
		{
			"bufferView":2,
			"componentType":5126,
			"count":20784,
			"type":"VEC2"
		},
		{
			"bufferView":3,
			"componentType":5126,
			"count":20784,
			"type":"VEC2"
		},
		{
			"bufferView":4,
			"componentType":5126,
			"count":20784,
			"type":"VEC2"
		},
		{
			"bufferView":5,
			"componentType":5126,
			"count":20784,
			"type":"VEC2"
		},
		{
			"bufferView":6,
			"componentType":5126,
			"count":20784,
			"type":"VEC2"
		},
		{
			"bufferView":7,
			"componentType":5123,
			"count":96810,
			"type":"SCALAR"
		}
	],
	"bufferViews":[
		{
			"buffer":0,
			"byteLength":249408,
			"byteOffset":0,
			"target":34962
		},
		{
			"buffer":0,
			"byteLength":249408,
			"byteOffset":249408,
			"target":34962
		},
		{
			"buffer":0,
			"byteLength":166272,
			"byteOffset":498816,
			"target":34962
		},
		{
			"buffer":0,
			"byteLength":166272,
			"byteOffset":665088,
			"target":34962
		},
		{
			"buffer":0,
			"byteLength":166272,
			"byteOffset":831360,
			"target":34962
		},
		{
			"buffer":0,
			"byteLength":166272,
			"byteOffset":997632,
			"target":34962
		},
		{
			"buffer":0,
			"byteLength":166272,
			"byteOffset":1163904,
			"target":34962
		},
		{
			"buffer":0,
			"byteLength":193620,
			"byteOffset":1330176,
			"target":34963
		}
	],
	"samplers":[
		{
			"magFilter":9729,
			"minFilter":9987
		}
	],
	"buffers":[
		{
			"byteLength":1523796,
			"uri":"model.bin"
		}
	]
}
