{
	"asset":{
		"generator":"Khronos glTF Blender I/O v3.6.27",
		"version":"2.0"
	},
	"scene":0,
	"scenes":[
		{
			"name":"Scene",
			"nodes":[
				1
			]
		}
	],
	"nodes":[
		{
			"mesh":0,
			"name":"Object_9",
			"scale":[
				1.6258796453475952,
				1.6258796453475952,
				1.6258796453475952
			],
			"translation":[
				0,
				0,
				-0.9862563610076904
			]
		},
		{
			"children":[
				0
			],
			"name":"Sketchfab_model",
			"rotation":[
				-0.70710688829422,
				0,
				0,
				0.7071066498756409
			]
		}
	],
	"materials":[
		{
			"doubleSided":true,
			"name":"Easel1",
			"normalTexture":{
				"index":0,
				"scale":0.5299999713897705
			},
			"occlusionTexture":{
				"index":1
			},
			"pbrMetallicRoughness":{
				"baseColorTexture":{
					"index":2
				},
				"metallicRoughnessTexture":{
					"index":1
				}
			}
		}
	],
	"meshes":[
		{
			"name":"Object_0",
			"primitives":[
				{
					"attributes":{
						"POSITION":0,
						"NORMAL":1,
						"TEXCOORD_0":2,
						"TEXCOORD_1":3,
						"TEXCOORD_2":4,
						"TEXCOORD_3":5,
						"TEXCOORD_4":6
					},
					"indices":7,
					"material":0
				}
			]
		}
	],
	"textures":[
		{
			"sampler":0,
			"source":0
		},
		{
			"sampler":0,
			"source":1
		},
		{
			"sampler":0,
			"source":2
		}
	],
	"images":[
		{
			"mimeType":"image/png",
			"name":"Image_2",
			"uri":"textures/Image_2.png"
		},
		{
			"mimeType":"image/png",
			"name":"Image_1",
			"uri":"textures/Image_1.png"
		},
		{
			"mimeType":"image/jpeg",
			"name":"Image_0",
			"uri":"textures/Image_0.jpg"
		}
	],
	"accessors":[
		{
			"bufferView":0,
			"componentType":5126,
			"count":1640,
			"max":[
				0.4807185232639313,
				0.3131548762321472,
				2.0031723976135254
			],
			"min":[
				-0.4807444214820862,
				-0.4614068865776062,
				-0.001074066385626793
			],
			"type":"VEC3"
		},
		{
			"bufferView":1,
			"componentType":5126,
			"count":1640,
			"type":"VEC3"
		},
		{
			"bufferView":2,
			"componentType":5126,
			"count":1640,
			"type":"VEC2"
		},
		{
			"bufferView":3,
			"componentType":5126,
			"count":1640,
			"type":"VEC2"
		},
		{
			"bufferView":4,
			"componentType":5126,
			"count":1640,
			"type":"VEC2"
		},
		{
			"bufferView":5,
			"componentType":5126,
			"count":1640,
			"type":"VEC2"
		},
		{
			"bufferView":6,
			"componentType":5126,
			"count":1640,
			"type":"VEC2"
		},
		{
			"bufferView":7,
			"componentType":5123,
			"count":4872,
			"type":"SCALAR"
		}
	],
	"bufferViews":[
		{
			"buffer":0,
			"byteLength":19680,
			"byteOffset":0,
			"target":34962
		},
		{
			"buffer":0,
			"byteLength":19680,
			"byteOffset":19680,
			"target":34962
		},
		{
			"buffer":0,
			"byteLength":13120,
			"byteOffset":39360,
			"target":34962
		},
		{
			"buffer":0,
			"byteLength":13120,
			"byteOffset":52480,
			"target":34962
		},
		{
			"buffer":0,
			"byteLength":13120,
			"byteOffset":65600,
			"target":34962
		},
		{
			"buffer":0,
			"byteLength":13120,
			"byteOffset":78720,
			"target":34962
		},
		{
			"buffer":0,
			"byteLength":13120,
			"byteOffset":91840,
			"target":34962
		},
		{
			"buffer":0,
			"byteLength":9744,
			"byteOffset":104960,
			"target":34963
		}
	],
	"samplers":[
		{
			"magFilter":9729,
			"minFilter":9987
		}
	],
	"buffers":[
		{
			"byteLength":114704,
			"uri":"model.bin"
		}
	]
}
