<svg viewBox="0 0 24 24" fill="none" xmlns="http://www.w3.org/2000/svg">
  <path fill-rule="evenodd" clip-rule="evenodd" d="M6.0075 7C6.55978 7 7.0075 6.55228 7.0075 6V1C7.0075 0.4477 7.45522 0 8.0075 0C8.55978 0 9.0075 0.4477 9.0075 1V6C9.0075 7.65685 7.66435 9 6.0075 9H1C0.4477 9 0 8.55228 0 8C0 7.44772 0.4477 7 1 7H6.0075ZM24 8C24 8.55228 23.5523 9 23 9H18.0051C16.3482 9 15.0051 7.65685 15.0051 6V1C15.0051 0.4477 15.4528 0 16.0051 0C16.5574 0 17.0051 0.4477 17.0051 1V6C17.0051 6.55229 17.4528 7 18.0051 7H23C23.5523 7 24 7.44772 24 8ZM8.0007 24C7.44842 24 7.0007 23.5523 7.0007 23V18C7.0007 17.4477 6.55299 17 6.0007 17H1C0.4478 17 0 16.5523 0 16C0 15.4477 0.4478 15 1 15H6.0007C7.65756 15 9.0007 16.3431 9.0007 18V23C9.0007 23.5523 8.55298 24 8.0007 24ZM16.0322 24C15.4799 24 15.0322 23.5522 15.0322 23V18.0025C15.0322 16.3456 16.3753 15.0025 18.0322 15.0025H23C23.5523 15.0025 24 15.4502 24 16.0025C24 16.5548 23.5523 17.0025 23 17.0025H18.0322C17.4799 17.0025 17.0322 17.4502 17.0322 18.0025V23C17.0322 23.5522 16.5845 24 16.0322 24Z" fill="currentColor"/>
</svg>
