<svg xmlns="http://www.w3.org/2000/svg" viewBox="0 0 32 32" fill="none">
  <path fill-rule="evenodd" clip-rule="evenodd" d="M7 6C6.44772 6 6 6.44772 6 7V12C6 12.5523 5.55228 13 5 13C4.44772 13 4 12.5523 4 12V7C4 5.34315 5.34315 4 7 4H12.0075C12.5598 4 13.0075 4.44772 13.0075 5C13.0075 5.55228 12.5598 6 12.0075 6H7ZM19.0051 5C19.0051 4.44772 19.4528 4 20.0051 4H25C26.6569 4 28 5.34315 28 7V12C28 12.5523 27.5523 13 27 13C26.4477 13 26 12.5523 26 12V7C26 6.44771 25.5523 6 25 6H20.0051C19.4528 6 19.0051 5.55228 19.0051 5ZM5 19C5.55228 19 6 19.4477 6 20V25C6 25.5523 6.44771 26 7 26H12.0007C12.5529 26 13.0007 26.4477 13.0007 27C13.0007 27.5523 12.5529 28 12.0007 28H7C5.34314 28 4 26.6569 4 25V20C4 19.4477 4.44772 19 5 19ZM27 19.0025C27.5523 19.0025 28 19.4503 28 20.0025V25C28 26.6569 26.6569 28 25 28H20.0322C19.4799 28 19.0322 27.5523 19.0322 27C19.0322 26.4477 19.4799 26 20.0322 26H25C25.5523 26 26 25.5523 26 25V20.0025C26 19.4503 26.4477 19.0025 27 19.0025Z" fill="black"/>
  <!-- <path fill-rule="evenodd" clip-rule="evenodd" d="M16 10C14.8954 10 14 10.8954 14 12C14 13.1046 14.8954 14 16 14C17.1046 14 18 13.1046 18 12C18 10.8954 17.1046 10 16 10ZM12 12C12 9.79086 13.7909 8 16 8C18.2091 8 20 9.79086 20 12C20 14.2091 18.2091 16 16 16C13.7909 16 12 14.2091 12 12Z" fill="black"/> -->
  <!-- <path fill-rule="evenodd" clip-rule="evenodd" d="M10 21C10 19.3431 11.3431 18 13 18H19C20.6569 18 22 19.3431 22 21V23C22 23.5523 21.5523 24 21 24C20.4477 24 20 23.5523 20 23V21C20 20.4477 19.5523 20 19 20H13C12.4477 20 12 20.4477 12 21V23C12 23.5523 11.5523 24 11 24C10.4477 24 10 23.5523 10 23V21Z" fill="black"/> -->
</svg>
