<svg width="106" height="98" viewBox="0 0 106 98" fill="none" stroke="currentColor" xmlns="http://www.w3.org/2000/svg">
<path d="M11.3852 51.2874C13.114 57.6866 15.867 64.6751 19.7823 72.2406L34.15 96.7856C14.3943 99.7789 8.22915 90.799 3.61861 80.0231C-1.09875 68.9975 0.0265819 54.8794 11.3852 51.2874ZM11.3852 51.2874C2.47994 18.325 20.75 1 47.3206 1L58.6794 1.00005C85.25 1.00005 103.52 18.3251 94.6148 51.2875M94.6148 51.2875C92.886 57.6866 90.133 64.6751 86.2177 72.2406L71.85 96.7856C91.6058 99.7789 97.7709 90.799 102.381 80.0232C107.099 68.9976 105.973 54.8794 94.6148 51.2875Z" stroke-linecap="round"/>
</svg>
