<svg xmlns="http://www.w3.org/2000/svg" fill="none" viewBox="0 0 32 40"><path fill="#000" d="M13 12a1 1 0 0 1-1 1H9a1 1 0 1 1 0-2h3a1 1 0 0 1 1 1M24 16a1 1 0 0 1-1 1h-3a1 1 0 1 1 0-2h3a1 1 0 0 1 1 1M13 16a1 1 0 0 1-1 1H9a1 1 0 1 1 0-2h3a1 1 0 0 1 1 1M24 20a1 1 0 0 1-1 1h-3a1 1 0 1 1 0-2h3a1 1 0 0 1 1 1M13 20a1 1 0 0 1-1 1H9a1 1 0 1 1 0-2h3a1 1 0 0 1 1 1"/><path fill="#000" fill-rule="evenodd" d="M7.101 7.634a19 19 0 0 1 6.798 0l1.114.203A1 1 0 0 0 15 8v8a1 1 0 1 0 2 0V8q0-.084-.013-.163l1.114-.203a19 19 0 0 1 3.899-.3V11a1 1 0 1 0 2 0V7.493q.45.06.899.141l.28.051A1 1 0 0 1 26 8.67v14.11a.853.853 0 0 1-1.006.84c-2.31-.42-4.678-.42-6.988 0L17 23.802V20a1 1 0 1 0-2 0v3.802l-1.006-.183c-2.31-.42-4.678-.42-6.988 0A.853.853 0 0 1 6 22.779V8.67a1 1 0 0 1 .821-.984zm9.436 18.285a3 3 0 0 1-.228.032 1 1 0 0 1-.618 0 3 3 0 0 1-.228-.032l-1.827-.332a17.5 17.5 0 0 0-6.272 0A2.853 2.853 0 0 1 4 22.779V8.67a3 3 0 0 1 2.463-2.951l.28-.051a21 21 0 0 1 7.514 0l1.564.284a1 1 0 0 0 .358 0l1.564-.284a21 21 0 0 1 7.514 0l.28.05A3 3 0 0 1 28 8.67v14.11a2.853 2.853 0 0 1-3.364 2.808 17.5 17.5 0 0 0-6.272 0z" clip-rule="evenodd"/><text y="47" fill="#000" font-family="'Helvetica Neue', Helvetica, Arial-Unicode, Arial, Sans-serif" font-size="5" font-weight="bold">Created by Daniela Paim</text><text y="52" fill="#000" font-family="'Helvetica Neue', Helvetica, Arial-Unicode, Arial, Sans-serif" font-size="5" font-weight="bold">from the Noun Project</text></svg>