<svg xmlns="http://www.w3.org/2000/svg" viewBox="0 0 32 40" fill="none" x="0px" y="0px">
  <path fill-rule="evenodd" clip-rule="evenodd" d="M12 6C12 4.89543 12.8954 4 14 4H18C19.1046 4 20 4.89543 20 6V7.93577C20.3405 8.10497 20.6688 8.29504 20.983 8.50429L22.6603 7.5359C23.6168 6.98361 24.84 7.31136 25.3923 8.26795L27.3923 11.7321C27.9446 12.6886 27.6168 13.9118 26.6603 14.4641L24.9824 15.4328C24.9941 15.6205 25 15.8096 25 16C25 16.1904 24.9941 16.3795 24.9824 16.5672L26.6603 17.5359C27.6168 18.0882 27.9446 19.3114 27.3923 20.2679L25.3923 23.732C24.84 24.6886 23.6168 25.0164 22.6603 24.4641L20.983 23.4957C20.6688 23.705 20.3405 23.895 20 24.0642V26C20 27.1046 19.1046 28 18 28H14C12.8954 28 12 27.1046 12 26V24.0642C11.6595 23.895 11.3313 23.705 11.0171 23.4957L9.33975 24.4641C8.38316 25.0164 7.15998 24.6886 6.6077 23.732L4.6077 20.2679C4.05541 19.3114 4.38317 18.0882 5.33975 17.5359L7.01763 16.5672C7.00594 16.3795 7.00001 16.1904 7.00001 16C7.00001 15.8096 7.00594 15.6205 7.01763 15.4328L5.33975 14.4641C4.38317 13.9118 4.05542 12.6886 4.6077 11.7321L6.6077 8.26795C7.15999 7.31136 8.38317 6.98361 9.33975 7.5359L11.0171 8.50429C11.3313 8.29505 11.6595 8.10497 12 7.93577V6ZM18 6L14 6V9.25555L13.3752 9.50845C12.7678 9.75431 12.2024 10.0832 11.6929 10.4815L11.1614 10.897L8.33975 9.26795L6.33975 12.732L9.15959 14.3601L9.06697 15.027C9.02287 15.3445 9.00001 15.6693 9.00001 16C9.00001 16.3307 9.02287 16.6555 9.06697 16.973L9.15959 17.6399L6.33975 19.2679L8.33975 22.732L11.1614 21.103L11.6929 21.5185C12.2024 21.9168 12.7678 22.2457 13.3752 22.4915L14 22.7445V26H18V22.7445L18.6248 22.4915C19.2322 22.2457 19.7977 21.9168 20.3071 21.5185L20.8386 21.103L23.6603 22.732L25.6603 19.2679L22.8404 17.6399L22.9331 16.973C22.9771 16.6555 23 16.3307 23 16C23 15.6693 22.9771 15.3445 22.9331 15.027L22.8404 14.3601L25.6603 12.7321L23.6603 9.26795L20.8386 10.897L20.3071 10.4815C19.7977 10.0832 19.2322 9.75431 18.6248 9.50845L18 9.25555V6Z" fill="currentColor"/>
  <path fill-rule="evenodd" clip-rule="evenodd" d="M16 14C14.8954 14 14 14.8954 14 16C14 17.1046 14.8954 18 16 18C17.1046 18 18 17.1046 18 16C18 14.8954 17.1046 14 16 14ZM12 16C12 13.7909 13.7909 12 16 12C18.2091 12 20 13.7909 20 16C20 18.2091 18.2091 20 16 20C13.7909 20 12 18.2091 12 16Z" fill="currentColor"/>
</svg>
