<svg width="131" height="99" viewBox="0 0 131 99" fill="none" xmlns="http://www.w3.org/2000/svg" stroke="currentColor">
<path d="M7 0.5H45C48.5899 0.5 51.5 3.41015 51.5 7V32.5C51.5 33.0523 51.0523 33.5 50.5 33.5H43C41.6193 33.5 40.5 34.6193 40.5 36V69.5V77C40.5 77.2761 40.2761 77.5 40 77.5H26H7C3.41015 77.5 0.5 74.5899 0.5 71V7C0.5 3.41015 3.41015 0.5 7 0.5Z"/>
<path d="M117.563 35.9468L118.435 76.9468C118.465 78.348 117.337 79.5 115.935 79.5L79 79.5L43 79.5C41.6193 79.5 40.5 78.3807 40.5 77L40.5 36C40.5 34.6193 41.6193 33.5 43 33.5L115.063 33.5C116.423 33.5 117.534 34.5871 117.563 35.9468Z"/>
<path d="M118.468 80.6375L127.568 94.6375C128.649 96.3007 127.456 98.5 125.472 98.5L34.0738 98.5C32.1723 98.5 30.9669 96.4613 31.8833 94.7952L39.5833 80.7952C40.0227 79.9963 40.8621 79.5 41.7738 79.5L116.372 79.5C117.218 79.5 118.007 79.928 118.468 80.6375Z"/>
<path d="M20 72H32" stroke-linecap="round"/>
<path d="M73 94H85" stroke-linecap="round"/>
</svg>
