{
	"asset":{
		"generator":"Khronos glTF Blender I/O v3.6.27",
		"version":"2.0"
	},
	"scene":0,
	"scenes":[
		{
			"name":"Scene",
			"nodes":[
				2
			]
		}
	],
	"nodes":[
		{
			"mesh":0,
			"name":"Object_2",
			"scale":[
				8,
				8,
				8
			]
		},
		{
			"children":[
				0
			],
			"name":"844ff657961d444c87c66de0a0bf9f7f.obj.cleaner.materialmerger.gle"
		},
		{
			"children":[
				1
			],
			"name":"Sketchfab_model",
			"rotation":[
				-0.70710688829422,
				0,
				0,
				0.7071066498756409
			]
		}
	],
	"materials":[
		{
			"doubleSided":true,
			"name":"Low_Poly",
			"normalTexture":{
				"index":0
			},
			"pbrMetallicRoughness":{
				"baseColorTexture":{
					"index":1
				},
				"metallicFactor":0.9502184987068176,
				"metallicRoughnessTexture":{
					"index":2
				}
			}
		}
	],
	"meshes":[
		{
			"name":"Object_0",
			"primitives":[
				{
					"attributes":{
						"POSITION":0,
						"NORMAL":1,
						"TEXCOORD_0":2
					},
					"indices":3,
					"material":0
				}
			]
		}
	],
	"textures":[
		{
			"sampler":0,
			"source":0
		},
		{
			"sampler":0,
			"source":1
		},
		{
			"sampler":0,
			"source":2
		}
	],
	"images":[
		{
			"mimeType":"image/png",
			"name":"Low_Poly_normal.png",
			"uri":"textures/normal.png"
		},
		{
			"mimeType":"image/png",
			"name":"Low_Poly_baseColor.png",
			"uri":"textures/diffuse.png"
		},
		{
			"mimeType":"image/png",
			"name":"Low_Poly_metallicRoughness.png",
			"uri":"textures/metallic_roughness.png"
		}
	],
	"accessors":[
		{
			"bufferView":0,
			"componentType":5126,
			"count":2298,
			"max":[
				0.028699999675154686,
				0.028699999675154686,
				0.07302500307559967
			],
			"min":[
				-0.028699999675154686,
				-0.028699999675154686,
				-0.07290700078010559
			],
			"type":"VEC3"
		},
		{
			"bufferView":1,
			"componentType":5126,
			"count":2298,
			"type":"VEC3"
		},
		{
			"bufferView":2,
			"componentType":5126,
			"count":2298,
			"type":"VEC2"
		},
		{
			"bufferView":3,
			"componentType":5123,
			"count":10464,
			"type":"SCALAR"
		}
	],
	"bufferViews":[
		{
			"buffer":0,
			"byteLength":27576,
			"byteOffset":0,
			"target":34962
		},
		{
			"buffer":0,
			"byteLength":27576,
			"byteOffset":27576,
			"target":34962
		},
		{
			"buffer":0,
			"byteLength":18384,
			"byteOffset":55152,
			"target":34962
		},
		{
			"buffer":0,
			"byteLength":20928,
			"byteOffset":73536,
			"target":34963
		}
	],
	"samplers":[
		{
			"magFilter":9729,
			"minFilter":9987
		}
	],
	"buffers":[
		{
			"byteLength":94464,
			"uri":"model.bin"
		}
	]
}
