<svg xmlns="http://www.w3.org/2000/svg" version="1.1" xmlns:xlink="http://www.w3.org/1999/xlink" xmlns:svgjs="http://svgjs.dev/svgjs" width="158" height="154"><svg width="158" height="154" viewBox="0 0 158 154" fill="none" xmlns="http://www.w3.org/2000/svg">
<path d="M22.5 30.856V33.356H25H133.416H135.916V30.856V21V18.5H133.416H25H22.5V21V30.856Z" fill="white" stroke="#12548E" stroke-width="5"></path>
<path d="M22.5 50.5679V53.0679H25H64.936H67.436V50.5679V40.7119V38.2119H64.936H25H22.5V40.7119V50.5679ZM90.98 50.5679V53.0679H93.48H133.416H135.916V50.5679V40.7119V38.2119H133.416H93.48H90.98V40.7119V50.5679Z" fill="white" stroke="#12548E" stroke-width="5"></path>
<path d="M22.5 70.2801V72.7801H25H133.416H135.916V70.2801V60.4241V57.9241H133.416H25H22.5V60.4241V70.2801Z" fill="white" stroke="#12548E" stroke-width="5"></path>
<path d="M22.5 89.992V92.492H25H133.416H135.916V89.992V80.136V77.636H133.416H25H22.5V80.136V89.992Z" fill="white" stroke="#12548E" stroke-width="5"></path>
<path d="M22.5 109.704V112.204H25H64.936H67.436V109.704V99.8481V97.3481H64.936H25H22.5V99.8481V109.704ZM90.98 109.704V112.204H93.48H133.416H135.916V109.704V99.8481V97.3481H133.416H93.48H90.98V99.8481V109.704Z" fill="white" stroke="#12548E" stroke-width="5"></path>
<path d="M22.5 129.416V131.916H25H64.936H67.436V129.416V119.56V117.06H64.936H25H22.5V119.56V129.416ZM90.98 129.416V131.916H93.48H133.416H135.916V129.416V119.56V117.06H133.416H93.48H90.98V119.56V129.416Z" fill="white" stroke="#12548E" stroke-width="5"></path>
</svg><style>@media (prefers-color-scheme: light) { :root { filter: none; } }
@media (prefers-color-scheme: dark) { :root { filter: none; } }
</style></svg>