{
	"asset":{
		"generator":"Khronos glTF Blender I/O v3.6.27",
		"version":"2.0"
	},
	"scene":0,
	"scenes":[
		{
			"name":"Scene",
			"nodes":[
				4,
				11
			]
		}
	],
	"nodes":[
		{
			"mesh":0,
			"name":"Pencil_Pencil_0"
		},
		{
			"children":[
				0
			],
			"name":"Pencil",
			"rotation":[
				-0.42235252261161804,
				-0.8057454228401184,
				0.14275692403316498,
				0.38988861441612244
			]
		},
		{
			"children":[
				1
			],
			"name":"RootNode"
		},
		{
			"children":[
				2
			],
			"name":"b33c0fbf26a8438180b668665e7a2028.fbx",
			"rotation":[
				-0.2932088077068329,
				0.4017217755317688,
				-0.11101514101028442,
				0.8604207634925842
			],
			"scale":[
				0.2313855141401291,
				0.23138557374477386,
				0.2313854694366455
			],
			"translation":[
				0.09695997834205627,
				0,
				-0.05291762948036194
			]
		},
		{
			"children":[
				3
			],
			"name":"yellow"
		},
		{
			"mesh":1,
			"name":"Cylinder_black_0"
		},
		{
			"mesh":2,
			"name":"Cylinder_chol_0"
		},
		{
			"mesh":3,
			"name":"Cylinder_red_0"
		},
		{
			"children":[
				5,
				6,
				7
			],
			"name":"Cylinder",
			"rotation":[
				-0.70710688829422,
				0,
				0,
				0.7071066498756409
			],
			"scale":[
				5.68676233291626,
				5.686761856079102,
				13.907286643981934
			],
			"translation":[
				0,
				82.07279205322266,
				0
			]
		},
		{
			"children":[
				8
			],
			"name":"RootNode.001",
			"translation":[
				0,
				2.1976884454488754e-06,
				0
			]
		},
		{
			"children":[
				9
			],
			"name":"a2eebe9e47ad41e1bb95bc44f51e0e11.fbx",
			"rotation":[
				-0.22252380847930908,
				0.6716864109039307,
				-0.6706656217575073,
				0.2225492000579834
			],
			"scale":[
				0.005645268131047487,
				0.0056452676653862,
				0.005645266734063625
			],
			"translation":[
				-0.07498204708099365,
				0.010485086590051651,
				-0.1310601532459259
			]
		},
		{
			"children":[
				10
			],
			"name":"red"
		}
	],
	"materials":[
		{
			"name":"Pencil",
			"pbrMetallicRoughness":{
				"baseColorTexture":{
					"index":0
				},
				"metallicFactor":0.03937007859349251,
				"roughnessFactor":0.20866140723228455
			}
		},
		{
			"doubleSided":true,
			"name":"black",
			"pbrMetallicRoughness":{
				"baseColorFactor":[
					0,
					0,
					0,
					1
				],
				"metallicFactor":0.5,
				"roughnessFactor":0.20000000298023224
			}
		},
		{
			"doubleSided":true,
			"name":"chol",
			"pbrMetallicRoughness":{
				"baseColorFactor":[
					0.800000011920929,
					0.3379260003566742,
					0.17129099369049072,
					1
				],
				"metallicFactor":0,
				"roughnessFactor":0.9051612019538879
			}
		},
		{
			"doubleSided":true,
			"name":"material",
			"pbrMetallicRoughness":{
				"baseColorFactor":[
					0.800000011920929,
					0,
					0.003882399993017316,
					1
				],
				"metallicFactor":0.5,
				"roughnessFactor":0.20000000298023224
			}
		}
	],
	"meshes":[
		{
			"name":"Pencil_Pencil_0",
			"primitives":[
				{
					"attributes":{
						"POSITION":0,
						"NORMAL":1,
						"TEXCOORD_0":2,
						"TEXCOORD_1":3,
						"TEXCOORD_2":4
					},
					"indices":5,
					"material":0
				}
			]
		},
		{
			"name":"Cylinder_black_0",
			"primitives":[
				{
					"attributes":{
						"POSITION":6,
						"NORMAL":7,
						"TEXCOORD_0":8
					},
					"indices":9,
					"material":1
				}
			]
		},
		{
			"name":"Cylinder_chol_0",
			"primitives":[
				{
					"attributes":{
						"POSITION":10,
						"NORMAL":11,
						"TEXCOORD_0":12
					},
					"indices":13,
					"material":2
				}
			]
		},
		{
			"name":"Cylinder_red_0",
			"primitives":[
				{
					"attributes":{
						"POSITION":14,
						"NORMAL":15,
						"TEXCOORD_0":16
					},
					"indices":17,
					"material":3
				}
			]
		}
	],
	"textures":[
		{
			"sampler":0,
			"source":0
		}
	],
	"images":[
		{
			"mimeType":"image/png",
			"name":"Image_0",
			"uri":"textures/Image_0.png"
		}
	],
	"accessors":[
		{
			"bufferView":0,
			"componentType":5126,
			"count":123,
			"max":[
				0.14251968264579773,
				3.302325487136841,
				0.12575487792491913
			],
			"min":[
				-0.14251968264579773,
				-3.30232572555542,
				-0.12575575709342957
			],
			"type":"VEC3"
		},
		{
			"bufferView":1,
			"componentType":5126,
			"count":123,
			"type":"VEC3"
		},
		{
			"bufferView":2,
			"componentType":5126,
			"count":123,
			"type":"VEC2"
		},
		{
			"bufferView":3,
			"componentType":5126,
			"count":123,
			"type":"VEC2"
		},
		{
			"bufferView":4,
			"componentType":5126,
			"count":123,
			"type":"VEC2"
		},
		{
			"bufferView":5,
			"componentType":5123,
			"count":372,
			"type":"SCALAR"
		},
		{
			"bufferView":6,
			"componentType":5126,
			"count":320,
			"max":[
				0.9999999403953552,
				0.9867864847183228,
				1.2016887664794922
			],
			"min":[
				-1,
				-0.9867864847183228,
				-18.656526565551758
			],
			"type":"VEC3"
		},
		{
			"bufferView":7,
			"componentType":5126,
			"count":320,
			"type":"VEC3"
		},
		{
			"bufferView":8,
			"componentType":5126,
			"count":320,
			"type":"VEC2"
		},
		{
			"bufferView":9,
			"componentType":5123,
			"count":468,
			"type":"SCALAR"
		},
		{
			"bufferView":10,
			"componentType":5126,
			"count":34,
			"max":[
				0.9999999403953552,
				0.9867864847183228,
				-15.912161827087402
			],
			"min":[
				-1,
				-0.9867864847183228,
				-18.082563400268555
			],
			"type":"VEC3"
		},
		{
			"bufferView":11,
			"componentType":5126,
			"count":34,
			"type":"VEC3"
		},
		{
			"bufferView":12,
			"componentType":5126,
			"count":34,
			"type":"VEC2"
		},
		{
			"bufferView":13,
			"componentType":5123,
			"count":96,
			"type":"SCALAR"
		},
		{
			"bufferView":14,
			"componentType":5126,
			"count":62,
			"max":[
				0.9999999403953552,
				0.9867864847183228,
				-1
			],
			"min":[
				-1,
				-0.9867864847183228,
				-16.10969352722168
			],
			"type":"VEC3"
		},
		{
			"bufferView":15,
			"componentType":5126,
			"count":62,
			"type":"VEC3"
		},
		{
			"bufferView":16,
			"componentType":5126,
			"count":62,
			"type":"VEC2"
		},
		{
			"bufferView":17,
			"componentType":5123,
			"count":96,
			"type":"SCALAR"
		}
	],
	"bufferViews":[
		{
			"buffer":0,
			"byteLength":1476,
			"byteOffset":0,
			"target":34962
		},
		{
			"buffer":0,
			"byteLength":1476,
			"byteOffset":1476,
			"target":34962
		},
		{
			"buffer":0,
			"byteLength":984,
			"byteOffset":2952,
			"target":34962
		},
		{
			"buffer":0,
			"byteLength":984,
			"byteOffset":3936,
			"target":34962
		},
		{
			"buffer":0,
			"byteLength":984,
			"byteOffset":4920,
			"target":34962
		},
		{
			"buffer":0,
			"byteLength":744,
			"byteOffset":5904,
			"target":34963
		},
		{
			"buffer":0,
			"byteLength":3840,
			"byteOffset":6648,
			"target":34962
		},
		{
			"buffer":0,
			"byteLength":3840,
			"byteOffset":10488,
			"target":34962
		},
		{
			"buffer":0,
			"byteLength":2560,
			"byteOffset":14328,
			"target":34962
		},
		{
			"buffer":0,
			"byteLength":936,
			"byteOffset":16888,
			"target":34963
		},
		{
			"buffer":0,
			"byteLength":408,
			"byteOffset":17824,
			"target":34962
		},
		{
			"buffer":0,
			"byteLength":408,
			"byteOffset":18232,
			"target":34962
		},
		{
			"buffer":0,
			"byteLength":272,
			"byteOffset":18640,
			"target":34962
		},
		{
			"buffer":0,
			"byteLength":192,
			"byteOffset":18912,
			"target":34963
		},
		{
			"buffer":0,
			"byteLength":744,
			"byteOffset":19104,
			"target":34962
		},
		{
			"buffer":0,
			"byteLength":744,
			"byteOffset":19848,
			"target":34962
		},
		{
			"buffer":0,
			"byteLength":496,
			"byteOffset":20592,
			"target":34962
		},
		{
			"buffer":0,
			"byteLength":192,
			"byteOffset":21088,
			"target":34963
		}
	],
	"samplers":[
		{
			"magFilter":9729,
			"minFilter":9987
		}
	],
	"buffers":[
		{
			"byteLength":21280,
			"uri":"model.bin"
		}
	]
}
