{
	"asset":{
		"generator":"Khronos glTF Blender I/O v3.6.27",
		"version":"2.0"
	},
	"scene":0,
	"scenes":[
		{
			"name":"Scene",
			"nodes":[
				33
			]
		}
	],
	"nodes":[
		{
			"mesh":0,
			"name":"Circle__0"
		},
		{
			"children":[
				0
			],
			"name":"Circle",
			"rotation":[
				-0.7071070075035095,
				0,
				0,
				0.7071065902709961
			],
			"scale":[
				0.05426807701587677,
				0.05426807329058647,
				0.05426807329058647
			],
			"translation":[
				-0.011489362455904484,
				0.044532325118780136,
				0.7524111270904541
			]
		},
		{
			"mesh":1,
			"name":"Circle.001_Material.001_0"
		},
		{
			"children":[
				2
			],
			"name":"Circle.001",
			"rotation":[
				-0.70710688829422,
				0,
				0,
				0.7071066498756409
			],
			"scale":[
				0.04422532767057419,
				0.04422532021999359,
				0.04422532021999359
			],
			"translation":[
				-0.009095141664147377,
				0.03325844556093216,
				0.7978830933570862
			]
		},
		{
			"mesh":2,
			"name":"Circle.002_Material.001_0"
		},
		{
			"children":[
				4
			],
			"name":"Circle.002",
			"rotation":[
				-0.70710688829422,
				0,
				0,
				0.7071066498756409
			],
			"scale":[
				0.04422532767057419,
				0.04422532021999359,
				0.04422532021999359
			],
			"translation":[
				0.22622419893741608,
				0.03325844556093216,
				0.7978830933570862
			]
		},
		{
			"mesh":3,
			"name":"Circle.003_Material.001_0"
		},
		{
			"children":[
				6
			],
			"name":"Circle.003",
			"rotation":[
				-0.70710688829422,
				0,
				0,
				0.7071066498756409
			],
			"scale":[
				0.04422532767057419,
				0.04422532021999359,
				0.04422532021999359
			],
			"translation":[
				-0.2466340810060501,
				0.03325844556093216,
				0.7978830933570862
			]
		},
		{
			"mesh":4,
			"name":"Circle.004__0"
		},
		{
			"children":[
				8
			],
			"name":"Circle.004",
			"rotation":[
				-0.70710688829422,
				0,
				0,
				0.7071066498756409
			],
			"scale":[
				0.015877828001976013,
				0.015877824276685715,
				0.015877824276685715
			],
			"translation":[
				-0.005755455698817968,
				0.06500008702278137,
				0.7976466417312622
			]
		},
		{
			"mesh":5,
			"name":"Plane_Material.001_0"
		},
		{
			"children":[
				10
			],
			"name":"Plane",
			"rotation":[
				-0.7071070075035095,
				0,
				0,
				0.7071065902709961
			],
			"scale":[
				0.3729095757007599,
				0.7231618165969849,
				0.4391016960144043
			],
			"translation":[
				-0.006949982140213251,
				0.05067183077335358,
				-0.0025786131154745817
			]
		},
		{
			"mesh":6,
			"name":"Plane.001__0",
			"translation":[
				-3.814697265625e-06,
				0,
				0
			]
		},
		{
			"children":[
				12
			],
			"name":"Plane.001",
			"rotation":[
				-0.70710688829422,
				0,
				0,
				0.7071066498756409
			],
			"scale":[
				0.012862573377788067,
				0.012862570583820343,
				0.012862570583820343
			],
			"translation":[
				0.2283158302307129,
				0.06445774435997009,
				0.7996871471405029
			]
		},
		{
			"mesh":7,
			"name":"Plane.002__0"
		},
		{
			"children":[
				14
			],
			"name":"Plane.002",
			"rotation":[
				-0.7071069478988647,
				0,
				0,
				0.7071066498756409
			],
			"scale":[
				0.015174811705946922,
				0.015174809843301773,
				0.015174809843301773
			],
			"translation":[
				-0.24677090346813202,
				0.06445774435997009,
				0.7996871471405029
			]
		},
		{
			"mesh":8,
			"name":"Roundcube_Material.004_0"
		},
		{
			"children":[
				16
			],
			"name":"Roundcube",
			"rotation":[
				-0.5,
				-0.4999999701976776,
				0.5,
				0.5
			],
			"scale":[
				0.04889125004410744,
				0.8778687715530396,
				0.4331379532814026
			]
		},
		{
			"mesh":9,
			"name":"Roundcube.001_Material.001_0"
		},
		{
			"children":[
				18
			],
			"name":"Roundcube.001",
			"rotation":[
				-0.70710688829422,
				0,
				0,
				0.7071066498756409
			],
			"scale":[
				0.007755739614367485,
				0.03896654397249222,
				0.01922598108649254
			],
			"translation":[
				0.4409100115299225,
				0,
				-0.5610782504081726
			]
		},
		{
			"mesh":10,
			"name":"Roundcube.002_Material.001_0",
			"translation":[
				-3.814697265625e-06,
				0,
				0
			]
		},
		{
			"children":[
				20
			],
			"name":"Roundcube.002",
			"rotation":[
				-0.70710688829422,
				0,
				0,
				0.7071066498756409
			],
			"scale":[
				0.007755739614367485,
				0.03896654397249222,
				0.01922598108649254
			],
			"translation":[
				0.44090956449508667,
				0,
				-0.4808158278465271
			]
		},
		{
			"mesh":11,
			"name":"Roundcube.003_Material.002_0",
			"translation":[
				3.814697265625e-06,
				0,
				0
			]
		},
		{
			"children":[
				22
			],
			"name":"Roundcube.003",
			"rotation":[
				-0.70710688829422,
				0,
				0,
				0.7071066498756409
			],
			"scale":[
				0.007755739614367485,
				0.03896654397249222,
				0.01922598108649254
			],
			"translation":[
				0.44026029109954834,
				0,
				-0.39683011174201965
			]
		},
		{
			"mesh":12,
			"name":"Roundcube.004_Material.001_0",
			"translation":[
				7.624476893397514e-06,
				0,
				0
			]
		},
		{
			"children":[
				24
			],
			"name":"Roundcube.004",
			"rotation":[
				-0.5000000596046448,
				0.5000000596046448,
				0.5000000596046448,
				0.5
			],
			"scale":[
				0.007755739614367485,
				0.33246952295303345,
				0.029586948454380035
			],
			"translation":[
				0.0012797306990250945,
				0,
				-0.880527913570404
			]
		},
		{
			"name":"Roundcube.006",
			"rotation":[
				-0.4999999701976776,
				-0.5000000596046448,
				0.5000001192092896,
				0.5
			],
			"scale":[
				0.013544741086661816,
				0.1445576250553131,
				0.1229916587471962
			],
			"translation":[
				0.028842026367783546,
				-0.044447820633649826,
				-0.5532910823822021
			]
		},
		{
			"mesh":13,
			"name":"Roundcube.007_Material.001_0",
			"translation":[
				3.812523800661438e-06,
				0,
				0
			]
		},
		{
			"children":[
				27
			],
			"name":"Roundcube.007",
			"rotation":[
				-0.5000000596046448,
				0.5000000596046448,
				0.5000000596046448,
				0.5
			],
			"scale":[
				0.017548099160194397,
				0.33246952295303345,
				0.029586948454380035
			],
			"translation":[
				0.0012797306990250945,
				0,
				0.8999752998352051
			]
		},
		{
			"mesh":14,
			"name":"Roundcube.008_Material.004_0"
		},
		{
			"children":[
				29
			],
			"name":"Roundcube.008",
			"rotation":[
				-0.5,
				-0.4999999701976776,
				0.5,
				0.5
			],
			"scale":[
				0.04889125004410744,
				0.8778687715530396,
				0.4331379532814026
			]
		},
		{
			"mesh":15,
			"name":"Roundcube.009_Material.010_0"
		},
		{
			"children":[
				31
			],
			"name":"Roundcube.009",
			"rotation":[
				-0.5,
				-0.5,
				0.5000001192092896,
				0.5
			],
			"scale":[
				0.049711886793375015,
				0.8926039338111877,
				0.44040822982788086
			],
			"translation":[
				-0.0032751173712313175,
				-0.0015018892008811235,
				0.013113670982420444
			]
		},
		{
			"children":[
				1,
				3,
				5,
				7,
				9,
				11,
				13,
				15,
				17,
				19,
				21,
				23,
				25,
				26,
				28,
				30,
				32
			],
			"name":"phone"
		}
	],
	"materials":[
		{
			"doubleSided":true,
			"name":"Circle__0",
			"pbrMetallicRoughness":{
				"metallicFactor":0,
				"roughnessFactor":0.6000000238418579
			}
		},
		{
			"doubleSided":true,
			"name":"Material.001",
			"pbrMetallicRoughness":{
				"baseColorFactor":[
					0,
					0,
					0,
					1
				],
				"metallicFactor":0
			}
		},
		{
			"doubleSided":true,
			"name":"Material.004",
			"pbrMetallicRoughness":{
				"baseColorFactor":[
					0.800000011920929,
					0.050917498767375946,
					0,
					1
				],
				"metallicFactor":0,
				"roughnessFactor":0.9538260698318481
			}
		},
		{
			"doubleSided":true,
			"name":"Material.002",
			"pbrMetallicRoughness":{
				"baseColorFactor":[
					0.800000011920929,
					0,
					0.0006202280055731535,
					1
				],
				"metallicFactor":0,
				"roughnessFactor":0.9619589447975159
			}
		},
		{
			"doubleSided":true,
			"name":"Material.010",
			"pbrMetallicRoughness":{
				"baseColorFactor":[
					1,
					0.002058630110695958,
					0,
					1
				],
				"metallicFactor":0,
				"roughnessFactor":0.952131986618042
			}
		}
	],
	"meshes":[
		{
			"name":"Circle__0",
			"primitives":[
				{
					"attributes":{
						"POSITION":0,
						"NORMAL":1,
						"TEXCOORD_0":2
					},
					"indices":3,
					"material":0
				}
			]
		},
		{
			"name":"Circle.001_Material.001_0",
			"primitives":[
				{
					"attributes":{
						"POSITION":4,
						"NORMAL":5,
						"TEXCOORD_0":6
					},
					"indices":7,
					"material":1
				}
			]
		},
		{
			"name":"Circle.002_Material.001_0",
			"primitives":[
				{
					"attributes":{
						"POSITION":8,
						"NORMAL":9,
						"TEXCOORD_0":10
					},
					"indices":7,
					"material":1
				}
			]
		},
		{
			"name":"Circle.003_Material.001_0",
			"primitives":[
				{
					"attributes":{
						"POSITION":11,
						"NORMAL":12,
						"TEXCOORD_0":13
					},
					"indices":7,
					"material":1
				}
			]
		},
		{
			"name":"Circle.004__0",
			"primitives":[
				{
					"attributes":{
						"POSITION":14,
						"NORMAL":15,
						"TEXCOORD_0":16
					},
					"indices":3,
					"material":0
				}
			]
		},
		{
			"name":"Plane_Material.001_0",
			"primitives":[
				{
					"attributes":{
						"POSITION":17,
						"NORMAL":18,
						"TEXCOORD_0":19
					},
					"indices":20,
					"material":1
				}
			]
		},
		{
			"name":"Plane.001__0",
			"primitives":[
				{
					"attributes":{
						"POSITION":21,
						"NORMAL":22,
						"TEXCOORD_0":23
					},
					"indices":20,
					"material":0
				}
			]
		},
		{
			"name":"Plane.002__0",
			"primitives":[
				{
					"attributes":{
						"POSITION":24,
						"NORMAL":25,
						"TEXCOORD_0":26
					},
					"indices":20,
					"material":0
				}
			]
		},
		{
			"name":"Roundcube_Material.004_0",
			"primitives":[
				{
					"attributes":{
						"POSITION":27,
						"NORMAL":28
					},
					"indices":29,
					"material":2
				}
			]
		},
		{
			"name":"Roundcube.001_Material.001_0",
			"primitives":[
				{
					"attributes":{
						"POSITION":30,
						"NORMAL":31
					},
					"indices":32,
					"material":1
				}
			]
		},
		{
			"name":"Roundcube.002_Material.001_0",
			"primitives":[
				{
					"attributes":{
						"POSITION":33,
						"NORMAL":34
					},
					"indices":32,
					"material":1
				}
			]
		},
		{
			"name":"Roundcube.003_Material.002_0",
			"primitives":[
				{
					"attributes":{
						"POSITION":35,
						"NORMAL":36
					},
					"indices":32,
					"material":3
				}
			]
		},
		{
			"name":"Roundcube.004_Material.001_0",
			"primitives":[
				{
					"attributes":{
						"POSITION":37,
						"NORMAL":38
					},
					"indices":39,
					"material":1
				}
			]
		},
		{
			"name":"Roundcube.007_Material.001_0",
			"primitives":[
				{
					"attributes":{
						"POSITION":40,
						"NORMAL":41
					},
					"indices":39,
					"material":1
				}
			]
		},
		{
			"name":"Roundcube.008_Material.004_0",
			"primitives":[
				{
					"attributes":{
						"POSITION":42,
						"NORMAL":43
					},
					"indices":29,
					"material":2
				}
			]
		},
		{
			"name":"Roundcube.009_Material.010_0",
			"primitives":[
				{
					"attributes":{
						"POSITION":44,
						"NORMAL":45
					},
					"indices":46,
					"material":4
				}
			]
		}
	],
	"accessors":[
		{
			"bufferView":0,
			"componentType":5126,
			"count":32,
			"max":[
				1,
				1,
				0
			],
			"min":[
				-1,
				-1,
				0
			],
			"type":"VEC3"
		},
		{
			"bufferView":1,
			"componentType":5126,
			"count":32,
			"type":"VEC3"
		},
		{
			"bufferView":2,
			"componentType":5126,
			"count":32,
			"type":"VEC2"
		},
		{
			"bufferView":3,
			"componentType":5123,
			"count":90,
			"type":"SCALAR"
		},
		{
			"bufferView":4,
			"componentType":5126,
			"count":192,
			"max":[
				1.0690972805023193,
				1.0021822452545166,
				0.6814889907836914
			],
			"min":[
				-0.930902898311615,
				-0.997817873954773,
				0.24420642852783203
			],
			"type":"VEC3"
		},
		{
			"bufferView":5,
			"componentType":5126,
			"count":192,
			"type":"VEC3"
		},
		{
			"bufferView":6,
			"componentType":5126,
			"count":192,
			"type":"VEC2"
		},
		{
			"bufferView":7,
			"componentType":5123,
			"count":372,
			"type":"SCALAR"
		},
		{
			"bufferView":8,
			"componentType":5126,
			"count":192,
			"max":[
				1.0690972805023193,
				1.0021822452545166,
				0.6814889907836914
			],
			"min":[
				-0.930902898311615,
				-0.997817873954773,
				0.24420642852783203
			],
			"type":"VEC3"
		},
		{
			"bufferView":9,
			"componentType":5126,
			"count":192,
			"type":"VEC3"
		},
		{
			"bufferView":10,
			"componentType":5126,
			"count":192,
			"type":"VEC2"
		},
		{
			"bufferView":11,
			"componentType":5126,
			"count":192,
			"max":[
				1.0690972805023193,
				1.0021822452545166,
				0.6814889907836914
			],
			"min":[
				-0.930902898311615,
				-0.997817873954773,
				0.24420642852783203
			],
			"type":"VEC3"
		},
		{
			"bufferView":12,
			"componentType":5126,
			"count":192,
			"type":"VEC3"
		},
		{
			"bufferView":13,
			"componentType":5126,
			"count":192,
			"type":"VEC2"
		},
		{
			"bufferView":14,
			"componentType":5126,
			"count":32,
			"max":[
				1,
				1,
				0
			],
			"min":[
				-1,
				-1,
				0
			],
			"type":"VEC3"
		},
		{
			"bufferView":15,
			"componentType":5126,
			"count":32,
			"type":"VEC3"
		},
		{
			"bufferView":16,
			"componentType":5126,
			"count":32,
			"type":"VEC2"
		},
		{
			"bufferView":17,
			"componentType":5126,
			"count":4,
			"max":[
				1,
				1,
				0
			],
			"min":[
				-1,
				-1,
				0
			],
			"type":"VEC3"
		},
		{
			"bufferView":18,
			"componentType":5126,
			"count":4,
			"type":"VEC3"
		},
		{
			"bufferView":19,
			"componentType":5126,
			"count":4,
			"type":"VEC2"
		},
		{
			"bufferView":20,
			"componentType":5123,
			"count":6,
			"type":"SCALAR"
		},
		{
			"bufferView":21,
			"componentType":5126,
			"count":4,
			"max":[
				1,
				1,
				0
			],
			"min":[
				-1,
				-1,
				0
			],
			"type":"VEC3"
		},
		{
			"bufferView":22,
			"componentType":5126,
			"count":4,
			"type":"VEC3"
		},
		{
			"bufferView":23,
			"componentType":5126,
			"count":4,
			"type":"VEC2"
		},
		{
			"bufferView":24,
			"componentType":5126,
			"count":4,
			"max":[
				1,
				1,
				0
			],
			"min":[
				-1,
				-1,
				0
			],
			"type":"VEC3"
		},
		{
			"bufferView":25,
			"componentType":5126,
			"count":4,
			"type":"VEC3"
		},
		{
			"bufferView":26,
			"componentType":5126,
			"count":4,
			"type":"VEC2"
		},
		{
			"bufferView":27,
			"componentType":5126,
			"count":372,
			"max":[
				1.0099207162857056,
				1.0099207162857056,
				1.0099207162857056
			],
			"min":[
				-1.0099207162857056,
				-1.0099207162857056,
				-1.0099207162857056
			],
			"type":"VEC3"
		},
		{
			"bufferView":28,
			"componentType":5126,
			"count":372,
			"type":"VEC3"
		},
		{
			"bufferView":29,
			"componentType":5123,
			"count":2211,
			"type":"SCALAR"
		},
		{
			"bufferView":30,
			"componentType":5126,
			"count":304,
			"max":[
				1.0099207162857056,
				1.0099207162857056,
				1.0099207162857056
			],
			"min":[
				-1.0099207162857056,
				-1.0099207162857056,
				-1.0099207162857056
			],
			"type":"VEC3"
		},
		{
			"bufferView":31,
			"componentType":5126,
			"count":304,
			"type":"VEC3"
		},
		{
			"bufferView":32,
			"componentType":5123,
			"count":1800,
			"type":"SCALAR"
		},
		{
			"bufferView":33,
			"componentType":5126,
			"count":304,
			"max":[
				1.0099207162857056,
				1.0099207162857056,
				1.0099207162857056
			],
			"min":[
				-1.0099207162857056,
				-1.0099207162857056,
				-1.0099207162857056
			],
			"type":"VEC3"
		},
		{
			"bufferView":34,
			"componentType":5126,
			"count":304,
			"type":"VEC3"
		},
		{
			"bufferView":35,
			"componentType":5126,
			"count":304,
			"max":[
				1.0099207162857056,
				1.0099207162857056,
				1.0099207162857056
			],
			"min":[
				-1.0099207162857056,
				-1.0099207162857056,
				-1.0099207162857056
			],
			"type":"VEC3"
		},
		{
			"bufferView":36,
			"componentType":5126,
			"count":304,
			"type":"VEC3"
		},
		{
			"bufferView":37,
			"componentType":5126,
			"count":344,
			"max":[
				1.0297622680664062,
				1.0297622680664062,
				1.0297622680664062
			],
			"min":[
				-1.0300004482269287,
				-1.0297622680664062,
				-1.0297622680664062
			],
			"type":"VEC3"
		},
		{
			"bufferView":38,
			"componentType":5126,
			"count":344,
			"type":"VEC3"
		},
		{
			"bufferView":39,
			"componentType":5123,
			"count":2040,
			"type":"SCALAR"
		},
		{
			"bufferView":40,
			"componentType":5126,
			"count":344,
			"max":[
				1.0297622680664062,
				1.0297622680664062,
				1.0297622680664062
			],
			"min":[
				-1.0300004482269287,
				-1.0297622680664062,
				-1.0297622680664062
			],
			"type":"VEC3"
		},
		{
			"bufferView":41,
			"componentType":5126,
			"count":344,
			"type":"VEC3"
		},
		{
			"bufferView":42,
			"componentType":5126,
			"count":372,
			"max":[
				1.0099207162857056,
				1.0099207162857056,
				1.0099207162857056
			],
			"min":[
				-1.0099207162857056,
				-1.0099207162857056,
				-1.0099207162857056
			],
			"type":"VEC3"
		},
		{
			"bufferView":43,
			"componentType":5126,
			"count":372,
			"type":"VEC3"
		},
		{
			"bufferView":44,
			"componentType":5126,
			"count":340,
			"max":[
				0.9468461871147156,
				1.0099207162857056,
				1.0099207162857056
			],
			"min":[
				-1.0099207162857056,
				-1.0099207162857056,
				-1.0099207162857056
			],
			"type":"VEC3"
		},
		{
			"bufferView":45,
			"componentType":5126,
			"count":340,
			"type":"VEC3"
		},
		{
			"bufferView":46,
			"componentType":5123,
			"count":2034,
			"type":"SCALAR"
		}
	],
	"bufferViews":[
		{
			"buffer":0,
			"byteLength":384,
			"byteOffset":0,
			"target":34962
		},
		{
			"buffer":0,
			"byteLength":384,
			"byteOffset":384,
			"target":34962
		},
		{
			"buffer":0,
			"byteLength":256,
			"byteOffset":768,
			"target":34962
		},
		{
			"buffer":0,
			"byteLength":180,
			"byteOffset":1024,
			"target":34963
		},
		{
			"buffer":0,
			"byteLength":2304,
			"byteOffset":1204,
			"target":34962
		},
		{
			"buffer":0,
			"byteLength":2304,
			"byteOffset":3508,
			"target":34962
		},
		{
			"buffer":0,
			"byteLength":1536,
			"byteOffset":5812,
			"target":34962
		},
		{
			"buffer":0,
			"byteLength":744,
			"byteOffset":7348,
			"target":34963
		},
		{
			"buffer":0,
			"byteLength":2304,
			"byteOffset":8092,
			"target":34962
		},
		{
			"buffer":0,
			"byteLength":2304,
			"byteOffset":10396,
			"target":34962
		},
		{
			"buffer":0,
			"byteLength":1536,
			"byteOffset":12700,
			"target":34962
		},
		{
			"buffer":0,
			"byteLength":2304,
			"byteOffset":14236,
			"target":34962
		},
		{
			"buffer":0,
			"byteLength":2304,
			"byteOffset":16540,
			"target":34962
		},
		{
			"buffer":0,
			"byteLength":1536,
			"byteOffset":18844,
			"target":34962
		},
		{
			"buffer":0,
			"byteLength":384,
			"byteOffset":20380,
			"target":34962
		},
		{
			"buffer":0,
			"byteLength":384,
			"byteOffset":20764,
			"target":34962
		},
		{
			"buffer":0,
			"byteLength":256,
			"byteOffset":21148,
			"target":34962
		},
		{
			"buffer":0,
			"byteLength":48,
			"byteOffset":21404,
			"target":34962
		},
		{
			"buffer":0,
			"byteLength":48,
			"byteOffset":21452,
			"target":34962
		},
		{
			"buffer":0,
			"byteLength":32,
			"byteOffset":21500,
			"target":34962
		},
		{
			"buffer":0,
			"byteLength":12,
			"byteOffset":21532,
			"target":34963
		},
		{
			"buffer":0,
			"byteLength":48,
			"byteOffset":21544,
			"target":34962
		},
		{
			"buffer":0,
			"byteLength":48,
			"byteOffset":21592,
			"target":34962
		},
		{
			"buffer":0,
			"byteLength":32,
			"byteOffset":21640,
			"target":34962
		},
		{
			"buffer":0,
			"byteLength":48,
			"byteOffset":21672,
			"target":34962
		},
		{
			"buffer":0,
			"byteLength":48,
			"byteOffset":21720,
			"target":34962
		},
		{
			"buffer":0,
			"byteLength":32,
			"byteOffset":21768,
			"target":34962
		},
		{
			"buffer":0,
			"byteLength":4464,
			"byteOffset":21800,
			"target":34962
		},
		{
			"buffer":0,
			"byteLength":4464,
			"byteOffset":26264,
			"target":34962
		},
		{
			"buffer":0,
			"byteLength":4422,
			"byteOffset":30728,
			"target":34963
		},
		{
			"buffer":0,
			"byteLength":3648,
			"byteOffset":35152,
			"target":34962
		},
		{
			"buffer":0,
			"byteLength":3648,
			"byteOffset":38800,
			"target":34962
		},
		{
			"buffer":0,
			"byteLength":3600,
			"byteOffset":42448,
			"target":34963
		},
		{
			"buffer":0,
			"byteLength":3648,
			"byteOffset":46048,
			"target":34962
		},
		{
			"buffer":0,
			"byteLength":3648,
			"byteOffset":49696,
			"target":34962
		},
		{
			"buffer":0,
			"byteLength":3648,
			"byteOffset":53344,
			"target":34962
		},
		{
			"buffer":0,
			"byteLength":3648,
			"byteOffset":56992,
			"target":34962
		},
		{
			"buffer":0,
			"byteLength":4128,
			"byteOffset":60640,
			"target":34962
		},
		{
			"buffer":0,
			"byteLength":4128,
			"byteOffset":64768,
			"target":34962
		},
		{
			"buffer":0,
			"byteLength":4080,
			"byteOffset":68896,
			"target":34963
		},
		{
			"buffer":0,
			"byteLength":4128,
			"byteOffset":72976,
			"target":34962
		},
		{
			"buffer":0,
			"byteLength":4128,
			"byteOffset":77104,
			"target":34962
		},
		{
			"buffer":0,
			"byteLength":4464,
			"byteOffset":81232,
			"target":34962
		},
		{
			"buffer":0,
			"byteLength":4464,
			"byteOffset":85696,
			"target":34962
		},
		{
			"buffer":0,
			"byteLength":4080,
			"byteOffset":90160,
			"target":34962
		},
		{
			"buffer":0,
			"byteLength":4080,
			"byteOffset":94240,
			"target":34962
		},
		{
			"buffer":0,
			"byteLength":4068,
			"byteOffset":98320,
			"target":34963
		}
	],
	"buffers":[
		{
			"byteLength":102388,
			"uri":"model.bin"
		}
	]
}
